<svg xmlns="http://www.w3.org/2000/svg" width="27.186" height="28.3" viewBox="0 0 27.186 28.3">
  <path id="Path_12964" data-name="Path 12964" d="M2,6.83A2.83,2.83,0,0,1,4.83,4h8.49a2.83,2.83,0,0,1,2.83,2.83V18.15a2.83,2.83,0,0,1-2.83,2.83H4.83A2.83,2.83,0,0,1,2,18.15ZM19.763,8.4A1.415,1.415,0,0,0,18.98,9.66v5.66a1.415,1.415,0,0,0,.782,1.265L22.593,18a1.415,1.415,0,0,0,2.048-1.265V8.245A1.415,1.415,0,0,0,22.593,6.98L19.763,8.4Z" transform="translate(-4.398 17.271) rotate(-53)" fill="#fff"/>
</svg>
