<svg xmlns="http://www.w3.org/2000/svg" width="41.346" height="41.346" viewBox="0 0 41.346 41.346">
  <path id="pen-fancy-solid" d="M4.843,17.3a1.958,1.958,0,0,0-1.238,1.238L0,29.357l.287.287,5.682-5.682a1.882,1.882,0,0,1-.1-.477A1.957,1.957,0,1,1,7.83,25.443a1.883,1.883,0,0,1-.477-.1L1.671,31.028l.286.286,10.815-3.605a1.956,1.956,0,0,0,1.238-1.238l2.023-5.142L9.985,15.281ZM22.585,1.73l-11.2,12.2,5.985,5.985,12.2-11.2C34.766,4.126,27.14-3.423,22.585,1.73Z" transform="matrix(0.914, 0.407, -0.407, 0.914, 12.737, 0.002)" fill="#4a56ff"/>
</svg>
