<svg xmlns="http://www.w3.org/2000/svg" width="30.02" height="18.716" viewBox="0 0 30.02 18.716">
  <path id="cloudversify-brands" d="M7.242,75.7c.4,3.338,3.285,5.629,7.115,5.424a6.831,6.831,0,0,0,9.084-.273,6.317,6.317,0,0,0,1.92-12.408c-1.608-4.294-6.4-4.947-9.089-4.143-2.793.843-4.108,2.593-4.839,5.346A6.794,6.794,0,0,0,9.24,70.821c.57,0,.741.434.741.95v.994a.952.952,0,0,1-.95.95H8.046A.847.847,0,0,1,7.1,72.9V72.58H4.815a.594.594,0,0,0-.526.58v1.969a.578.578,0,0,0,.57.575H7.242Zm11.083.39c-.521,2.256,1.058,3.528,2.7,4.23-5.224,1.647-8.363-2.476-6.594-5.4-1.618,1.053-1.642,3.47-1.423,4.528-.872-.6-2.622-1.579-2.8-3.889a4.841,4.841,0,0,1,2.778-4.576,5.61,5.61,0,0,1,6.511,1.988c-.687-2.339-2.622-3.416-4.961-3.645a6.216,6.216,0,0,1,5.566-2.13c3.4.453,6.492,4.035,3.3,7.335a4.165,4.165,0,0,0,2.315-3.748l.512.955A4.973,4.973,0,0,1,22.8,78.974a3.618,3.618,0,0,1-4.474-2.885ZM6.238,71.02H4.3a.792.792,0,0,1-.79-.79V68.3a.792.792,0,0,1,.79-.79h1.94a.792.792,0,0,1,.79.79v1.93A.792.792,0,0,1,6.238,71.02ZM.492,69.071A.491.491,0,0,1,0,68.579V67.224a.491.491,0,0,1,.492-.492h1.35a.494.494,0,0,1,.492.492v1.355a.491.491,0,0,1-.492.492Zm7.7-1.233V66.8a.456.456,0,0,1,.453-.453H9.684a.456.456,0,0,1,.453.453v1.043a.456.456,0,0,1-.453.453H8.641A.456.456,0,0,1,8.188,67.838ZM2.729,72.361v1.218a.56.56,0,0,1-.556.56H.945a.56.56,0,0,1-.556-.56V72.361a.56.56,0,0,1,.556-.56H2.169A.561.561,0,0,1,2.729,72.361Z" transform="translate(0 -64.003)" fill="#fff"/>
</svg>
