<svg xmlns="http://www.w3.org/2000/svg" width="19.281" height="19.281" viewBox="0 0 19.281 19.281">
  <path id="Path_12985" data-name="Path 12985" d="M5.615,2A1.205,1.205,0,0,1,6.82,3.205V4.41H8.025a1.205,1.205,0,1,1,0,2.41H6.82V8.025a1.205,1.205,0,0,1-2.41,0V6.82H3.205a1.205,1.205,0,1,1,0-2.41H4.41V3.205A1.205,1.205,0,0,1,5.615,2Zm0,12.051A1.205,1.205,0,0,1,6.82,15.256v1.205H8.025a1.205,1.205,0,1,1,0,2.41H6.82v1.205a1.205,1.205,0,1,1-2.41,0V18.871H3.205a1.205,1.205,0,1,1,0-2.41H4.41V15.256A1.205,1.205,0,0,1,5.615,14.051ZM14.051,2a1.205,1.205,0,0,1,1.165.9l1.421,5.37L20.678,10.6a1.205,1.205,0,0,1,0,2.087l-4.042,2.332-1.422,5.369a1.205,1.205,0,0,1-2.329,0l-1.421-5.37L7.423,12.684a1.205,1.205,0,0,1,0-2.087l4.042-2.332L12.887,2.9A1.205,1.205,0,0,1,14.051,2Z" transform="translate(-2 -2)" fill="#fff" fill-rule="evenodd"/>
</svg>
