<svg xmlns="http://www.w3.org/2000/svg" width="30.415" height="27.035" viewBox="0 0 30.415 27.035">
  <path id="brain-solid" d="M10.983,0A3.369,3.369,0,0,0,7.72,2.545c-.042,0-.074-.011-.116-.011A3.383,3.383,0,0,0,4.224,5.914a3.114,3.114,0,0,0,.09.739A4.188,4.188,0,0,0,2.128,12.4a4.209,4.209,0,0,0,.481,7.551,3.869,3.869,0,0,0-.074.745,3.8,3.8,0,0,0,3.8,3.8,3.58,3.58,0,0,0,.634-.063,3.793,3.793,0,0,0,7.392-1.2V3.379A3.383,3.383,0,0,0,10.983,0ZM30.415,16.052A4.2,4.2,0,0,0,28.287,12.4a4.156,4.156,0,0,0,.438-1.843A4.224,4.224,0,0,0,26.1,6.653a3.348,3.348,0,0,0-3.29-4.119c-.042,0-.079.011-.116.011a3.373,3.373,0,0,0-6.643.834V23.234a3.793,3.793,0,0,0,7.392,1.2,3.58,3.58,0,0,0,.634.063,3.8,3.8,0,0,0,3.8-3.8,3.869,3.869,0,0,0-.074-.745A4.224,4.224,0,0,0,30.415,16.052Z" fill="#fff"/>
</svg>
