<svg xmlns="http://www.w3.org/2000/svg" width="15.702" height="20.936" viewBox="0 0 15.702 20.936">
  <g id="Group_12" data-name="Group 12" transform="translate(-4 -2)">
    <path id="Path_12973" data-name="Path 12973" d="M8,3.309A1.309,1.309,0,0,1,9.309,2h2.617a1.309,1.309,0,0,1,0,2.617H9.309A1.309,1.309,0,0,1,8,3.309Z" transform="translate(1.234)" fill="#fff"/>
    <path id="Path_12974" data-name="Path 12974" d="M6.617,3A2.617,2.617,0,0,0,4,5.617V20.011a2.617,2.617,0,0,0,2.617,2.617H17.085A2.617,2.617,0,0,0,19.7,20.011V5.617A2.617,2.617,0,0,0,17.085,3,3.926,3.926,0,0,1,13.16,6.926H10.543A3.926,3.926,0,0,1,6.617,3Z" transform="translate(0 0.309)" fill="#fff"/>
  </g>
</svg>
