<svg xmlns="http://www.w3.org/2000/svg" width="35.158" height="28.127" viewBox="0 0 35.158 28.127">
  <path id="network-wired-solid" d="M35.158,14.5v-.879a.879.879,0,0,0-.879-.879H18.9v-2.2h3.955A1.758,1.758,0,0,0,24.611,8.79V1.758A1.758,1.758,0,0,0,22.853,0H12.305a1.758,1.758,0,0,0-1.758,1.758V8.79a1.758,1.758,0,0,0,1.758,1.758h3.955v2.2H.879A.879.879,0,0,0,0,13.624V14.5a.879.879,0,0,0,.879.879H6.592v2.2H3.516a1.758,1.758,0,0,0-1.758,1.758v7.032a1.758,1.758,0,0,0,1.758,1.758h8.79a1.758,1.758,0,0,0,1.758-1.758V19.337a1.758,1.758,0,0,0-1.758-1.758H9.229v-2.2h16.7v2.2H22.853A1.758,1.758,0,0,0,21.1,19.337v7.032a1.758,1.758,0,0,0,1.758,1.758h8.79A1.758,1.758,0,0,0,33.4,26.369V19.337a1.758,1.758,0,0,0-1.758-1.758H28.566v-2.2h5.713A.879.879,0,0,0,35.158,14.5Zm-21.1-7.471V3.516H21.1V7.032ZM10.548,24.611H5.274V21.1h5.274Zm19.337,0H24.611V21.1h5.274Z" fill="#fff"/>
</svg>
