<svg xmlns="http://www.w3.org/2000/svg" width="20.549" height="17.98" viewBox="0 0 20.549 17.98">
  <path id="Path_12992" data-name="Path 12992" d="M2,13.274A1.284,1.284,0,0,1,3.284,11.99H5.853a1.284,1.284,0,0,1,1.284,1.284V19.7A1.284,1.284,0,0,1,5.853,20.98H3.284A1.284,1.284,0,0,1,2,19.7ZM9.706,8.137A1.284,1.284,0,0,1,10.99,6.853h2.569a1.284,1.284,0,0,1,1.284,1.284V19.7a1.284,1.284,0,0,1-1.284,1.284H10.99A1.284,1.284,0,0,1,9.706,19.7Zm7.706-3.853A1.284,1.284,0,0,1,18.7,3h2.569a1.284,1.284,0,0,1,1.284,1.284V19.7a1.284,1.284,0,0,1-1.284,1.284H18.7A1.284,1.284,0,0,1,17.411,19.7Z" transform="translate(-2 -3)" fill="#fff"/>
</svg>
