<svg xmlns="http://www.w3.org/2000/svg" width="19.316" height="19.316" viewBox="0 0 19.316 19.316">
  <path id="Path_12981" data-name="Path 12981" d="M11.658,3.811a1.811,1.811,0,0,1,3.622,0v.6a1.207,1.207,0,0,0,1.207,1.207h3.622a1.207,1.207,0,0,1,1.207,1.207v3.622a1.207,1.207,0,0,1-1.207,1.207h-.6a1.811,1.811,0,1,0,0,3.622h.6a1.207,1.207,0,0,1,1.207,1.207v3.622a1.207,1.207,0,0,1-1.207,1.207H16.487a1.207,1.207,0,0,1-1.207-1.207v-.6a1.811,1.811,0,0,0-3.622,0v.6a1.207,1.207,0,0,1-1.207,1.207H6.829a1.207,1.207,0,0,1-1.207-1.207V16.487A1.207,1.207,0,0,0,4.414,15.28h-.6a1.811,1.811,0,0,1,0-3.622h.6a1.207,1.207,0,0,0,1.207-1.207V6.829A1.207,1.207,0,0,1,6.829,5.622h3.622a1.207,1.207,0,0,0,1.207-1.207Z" transform="translate(-2 -2)" fill="#fff"/>
</svg>
