<svg xmlns="http://www.w3.org/2000/svg" width="27.85" height="26.109" viewBox="0 0 27.85 26.109">
  <path id="Path_12999" data-name="Path 12999" d="M29.85,20.406V6.481A3.481,3.481,0,0,0,26.368,3H5.481A3.481,3.481,0,0,0,2,6.481V20.406a3.481,3.481,0,0,0,3.481,3.481H10.7l5.222,5.222,5.222-5.222h5.222A3.481,3.481,0,0,0,29.85,20.406ZM7.222,9.962A1.741,1.741,0,0,1,8.962,8.222H22.887a1.741,1.741,0,0,1,0,3.481H8.962A1.741,1.741,0,0,1,7.222,9.962Zm1.741,5.222a1.741,1.741,0,0,0,0,3.481h5.222a1.741,1.741,0,0,0,0-3.481Z" transform="translate(-2 -3)" fill="#ff7b4a" fill-rule="evenodd"/>
</svg>
