<svg xmlns="http://www.w3.org/2000/svg" width="18.615" height="14.692" viewBox="0 0 18.615 14.692">
  <g id="font-selection-editor" transform="translate(0 -53.67)">
    <g id="Group_11362" data-name="Group 11362" transform="translate(0 53.67)">
      <path id="Path_32316" data-name="Path 32316" d="M14.483,63.071a.314.314,0,0,0-.365.073l-.668.668a.312.312,0,0,0-.094.229v1.315a1.674,1.674,0,0,1-1.669,1.67H3.005a1.608,1.608,0,0,1-1.179-.49,1.608,1.608,0,0,1-.49-1.179V56.675a1.608,1.608,0,0,1,.49-1.179,1.608,1.608,0,0,1,1.179-.49h8.682a1.854,1.854,0,0,1,.47.063.3.3,0,0,0,.334-.083L13,54.473a.325.325,0,0,0,.094-.3.316.316,0,0,0-.188-.24,2.874,2.874,0,0,0-1.221-.261H3.005a2.9,2.9,0,0,0-2.123.882A2.9,2.9,0,0,0,0,56.675v8.681A2.9,2.9,0,0,0,.882,67.48a2.894,2.894,0,0,0,2.123.882h8.681a3.011,3.011,0,0,0,3.005-3.005V63.374A.3.3,0,0,0,14.483,63.071Z" transform="translate(0 -53.67)" fill="#0e0024"/>
      <path id="Path_32317" data-name="Path 32317" d="M182.721,115.5v3h3.005l7.012-7.012-3.005-3.005Zm2.588,2h-.584v-1h-1v-.584l1.21-1.21,1.586,1.586Zm4.581-7.169-3.652,3.652a.236.236,0,1,1-.334-.334L189.555,110a.236.236,0,1,1,.334.334Z" transform="translate(-176.043 -106.487)" fill="#0e0024"/>
      <path id="Path_32318" data-name="Path 32318" d="M396.822,57.835l-1.586-1.586a1.007,1.007,0,0,0-1.419,0l-.96.96,3.005,3.005.96-.96a1.008,1.008,0,0,0,0-1.419Z" transform="translate(-378.499 -55.873)" fill="#0e0024"/>
    </g>
  </g>
</svg>
