<svg xmlns="http://www.w3.org/2000/svg" width="16.846" height="16.847" viewBox="0 0 16.846 16.847">
  <path id="Path_13584" data-name="Path 13584" d="M3,4.2A1.2,1.2,0,0,1,4.2,3h14.44a1.2,1.2,0,0,1,1.2,1.2V6.61a1.2,1.2,0,0,1-1.2,1.2H4.2A1.2,1.2,0,0,1,3,6.61Zm0,7.22a1.2,1.2,0,0,1,1.2-1.2h7.22a1.2,1.2,0,0,1,1.2,1.2v7.22a1.2,1.2,0,0,1-1.2,1.2H4.2a1.2,1.2,0,0,1-1.2-1.2Zm13.236-1.2a1.2,1.2,0,0,0-1.2,1.2v7.22a1.2,1.2,0,0,0,1.2,1.2h2.407a1.2,1.2,0,0,0,1.2-1.2v-7.22a1.2,1.2,0,0,0-1.2-1.2Z" transform="translate(-3 -3)" fill="#0e0024"/>
</svg>
