<svg xmlns="http://www.w3.org/2000/svg" width="13.881" height="15.793" viewBox="0 0 13.881 15.793">
  <g id="headphones" transform="translate(-31)">
    <g id="Group_11365" data-name="Group 11365" transform="translate(32.851 6.478)">
      <g id="Group_11364" data-name="Group 11364">
        <path id="Path_32348" data-name="Path 32348" d="M92.388,210A1.39,1.39,0,0,0,91,211.388v3.763a1.388,1.388,0,1,0,2.776,0v-3.763A1.39,1.39,0,0,0,92.388,210Z" transform="translate(-91 -210)" fill="#0e0024"/>
      </g>
    </g>
    <g id="Group_11367" data-name="Group 11367" transform="translate(31 7.476)">
      <g id="Group_11366" data-name="Group 11366">
        <path id="Path_32349" data-name="Path 32349" d="M31.925,242.756a2.3,2.3,0,0,1,.039-.39A1.385,1.385,0,0,0,31,243.681v1.912a1.385,1.385,0,0,0,.965,1.315,2.3,2.3,0,0,1-.039-.39Z" transform="translate(-31 -242.366)" fill="#0e0024"/>
      </g>
    </g>
    <g id="Group_11369" data-name="Group 11369" transform="translate(36.552 6.478)">
      <g id="Group_11368" data-name="Group 11368">
        <path id="Path_32350" data-name="Path 32350" d="M216.09,210a1.39,1.39,0,0,0-1.388,1.388v3.763a1.39,1.39,0,0,0,1.388,1.388,1.37,1.37,0,0,0,.4-.065,1.385,1.385,0,0,1-1.323.99h-1.473a1.388,1.388,0,1,0,0,.925h1.473a2.316,2.316,0,0,0,2.313-2.313v-4.689A1.39,1.39,0,0,0,216.09,210Z" transform="translate(-211 -210)" fill="#0e0024"/>
      </g>
    </g>
    <g id="Group_11371" data-name="Group 11371" transform="translate(43.916 7.476)">
      <g id="Group_11370" data-name="Group 11370">
        <path id="Path_32351" data-name="Path 32351" d="M449.722,242.366a2.3,2.3,0,0,1,.039.39v3.763a2.3,2.3,0,0,1-.039.39,1.385,1.385,0,0,0,.965-1.315v-1.912A1.385,1.385,0,0,0,449.722,242.366Z" transform="translate(-449.722 -242.366)" fill="#0e0024"/>
      </g>
    </g>
    <g id="Group_11373" data-name="Group 11373" transform="translate(31)">
      <g id="Group_11372" data-name="Group 11372">
        <path id="Path_32352" data-name="Path 32352" d="M37.94,0A6.948,6.948,0,0,0,31,6.94v.012a2.291,2.291,0,0,1,.947-.43,6.008,6.008,0,0,1,11.988,0,2.292,2.292,0,0,1,.947.43V6.94A6.948,6.948,0,0,0,37.94,0Z" transform="translate(-31)" fill="#0e0024"/>
      </g>
    </g>
  </g>
</svg>
