<svg xmlns="http://www.w3.org/2000/svg" width="18.169" height="18.589" viewBox="0 0 18.169 18.589">
  <g id="affiliate-marketing" transform="translate(-0.894)">
    <g id="Group_11363" data-name="Group 11363" transform="translate(0.894)">
      <path id="Path_32344" data-name="Path 32344" d="M2.784,12.078a7.367,7.367,0,0,1-.315-2.153A7.153,7.153,0,0,1,7.615,3.1v.893l3.939-2L7.616,0V1.418A8.874,8.874,0,0,0,.894,9.925a8.712,8.712,0,0,0,.158,1.68l.105-.84Z" transform="translate(-0.894)" fill="#0e0024"/>
      <path id="Path_32345" data-name="Path 32345" d="M48.918,16.843l-.263,4.411,3.676-2.415L51.125,18.1a7.915,7.915,0,0,0,.367-2.521A8.758,8.758,0,0,0,45.663,7.39l.682.42-2,.84a7.137,7.137,0,0,1,5.566,6.931,8.649,8.649,0,0,1-.21,1.68Z" transform="translate(-34.163 -5.658)" fill="#0e0024"/>
      <path id="Path_32346" data-name="Path 32346" d="M17.726,54.488A7.051,7.051,0,0,1,7.591,54.8l.788-.42L4.7,51.967l.262,4.411,1.208-.735a8.642,8.642,0,0,0,6.3,2.73,8.537,8.537,0,0,0,5.619-2.1l-.787.315Z" transform="translate(-3.81 -39.784)" fill="#0e0024"/>
      <path id="Path_32347" data-name="Path 32347" d="M28.6,33.973c-.1-.21-.21-.21-.367-.262-.788-.315-1.47-.42-2.206-.683a.587.587,0,0,1-.263-.525c0-.158-.052-.262-.21-.262-.053,0-.053,0-.053-.105a3.9,3.9,0,0,1-.053-.577.18.18,0,0,1,.053-.1,2.527,2.527,0,0,0,.368-1.05s.053.053.1-.1.053-.21.105-.42c.053-.158.053-.42-.105-.42-.1.053-.1,0-.1-.105v-1a.968.968,0,0,0-.42-.683,1.661,1.661,0,0,1-.42-.315.2.2,0,0,1,0-.315c.053-.053.158-.1.21-.158h-.053c-.053,0-.63.1-.84.158a3.517,3.517,0,0,0-1.208.525,1.133,1.133,0,0,0-.473.735v1c0,.052,0,.158-.105.1-.21-.053-.105.367-.105.42.053.158.105.263.158.42.053.1.105.1.105.1a3.149,3.149,0,0,0,.368,1.05.193.193,0,0,1,.053.158,1.784,1.784,0,0,0-.053.525.113.113,0,0,1-.105.1c-.158,0-.21.1-.21.262a.628.628,0,0,1-.262.525c-.368.158-1.733.578-2.153.682-.315.1-.367.21-.42.315V34.5H28.6v-.525Z" transform="translate(-15.471 -20.582)" fill="#0e0024"/>
    </g>
  </g>
</svg>
