<svg id="intersect" xmlns="http://www.w3.org/2000/svg" width="18.848" height="18.848" viewBox="0 0 18.848 18.848">
  <path id="Path_13138" data-name="Path 13138" d="M7.215,6.663h4.97V.552A.552.552,0,0,0,11.633,0H.552A.552.552,0,0,0,0,.552V11.633a.552.552,0,0,0,.552.552H6.663V7.215A.552.552,0,0,1,7.215,6.663Z" fill="#0e0024"/>
  <path id="Path_13139" data-name="Path 13139" d="M192.633,181h-6.111v4.97a.552.552,0,0,1-.552.552H181v6.111a.552.552,0,0,0,.552.552h11.081a.552.552,0,0,0,.552-.552V181.552A.552.552,0,0,0,192.633,181Z" transform="translate(-174.337 -174.337)" fill="#0e0024"/>
</svg>
