<svg xmlns="http://www.w3.org/2000/svg" width="13.351" height="16.197" viewBox="0 0 13.351 16.197">
  <path id="double-arrow" d="M31.286,9.725a3.527,3.527,0,0,1-4.98.285L23.55,7.553a1.64,1.64,0,0,0-2.313.132l-.106.119a1.64,1.64,0,0,0,.132,2.313l2.66,2.372.379-.418a.756.756,0,0,1,1.279.277l.9,2.816a.756.756,0,0,1-.7,1.033H25.78a.752.752,0,0,1-.16-.017l-2.939-.636a.756.756,0,0,1-.4-1.246l.372-.41-2.647-2.361a3.531,3.531,0,0,1-.285-4.98l.106-.119a3.531,3.531,0,0,1,4.98-.285L27.563,8.6a1.638,1.638,0,1,0,2.181-2.445L27,3.709l-.38.419a.756.756,0,0,1-1.279-.277L24.422.987A.756.756,0,0,1,25.3.018l2.939.636a.756.756,0,0,1,.4,1.246l-.371.409L31,4.745A3.531,3.531,0,0,1,31.286,9.725Z" transform="translate(-18.828 0)" fill="#4262ff"/>
</svg>
