<svg xmlns="http://www.w3.org/2000/svg" width="16.492" height="11.78" viewBox="0 0 16.492 11.78">
  <g id="facetime-button" transform="translate(0 -73.09)">
    <path id="Path_32356" data-name="Path 32356" d="M16.133,73.43a.641.641,0,0,0-.23-.046.547.547,0,0,0-.414.175l-3.709,3.7V75.741A2.655,2.655,0,0,0,9.129,73.09H2.65a2.553,2.553,0,0,0-1.873.778A2.553,2.553,0,0,0,0,75.741v6.479a2.553,2.553,0,0,0,.778,1.873,2.553,2.553,0,0,0,1.873.778H9.129a2.655,2.655,0,0,0,2.651-2.65V80.692L15.489,84.4a.547.547,0,0,0,.414.175.642.642,0,0,0,.23-.046.55.55,0,0,0,.359-.543V73.974A.55.55,0,0,0,16.133,73.43Z" transform="translate(0 0)" fill="#0e0024"/>
  </g>
</svg>
