<svg xmlns="http://www.w3.org/2000/svg" width="16.992" height="14.16" viewBox="0 0 16.992 14.16">
  <g id="sign-in" transform="translate(0 -36.551)">
    <g id="Group_11361" data-name="Group 11361" transform="translate(0 36.551)">
      <path id="Path_32314" data-name="Path 32314" d="M261.506,37.486a3.068,3.068,0,0,0-2.251-.935h-3.54a.333.333,0,0,0-.227.072.365.365,0,0,0-.111.216,1.828,1.828,0,0,0-.033.26,2.7,2.7,0,0,0,.006.293q.011.177.011.221a.286.286,0,0,1,.022.149c-.007.04.018.074.077.1s.088.046.088.061.042.026.127.033l.127.011h3.452a1.776,1.776,0,0,1,1.77,1.77v7.788a1.776,1.776,0,0,1-1.77,1.77h-3.54a.334.334,0,0,0-.227.072.366.366,0,0,0-.111.216,1.844,1.844,0,0,0-.033.26,2.747,2.747,0,0,0,.006.293q.011.177.011.221a.358.358,0,0,0,.354.354h3.54a3.192,3.192,0,0,0,3.186-3.186V39.737A3.07,3.07,0,0,0,261.506,37.486Z" transform="translate(-245.449 -36.551)" fill="#4262ff"/>
      <path id="Path_32315" data-name="Path 32315" d="M13.1,52.4a.681.681,0,0,0-.21-.5L6.87,45.887a.708.708,0,0,0-1.206.5v3.186H.708a.681.681,0,0,0-.5.21.681.681,0,0,0-.21.5v4.248a.68.68,0,0,0,.21.5.682.682,0,0,0,.5.21H5.664v3.186a.7.7,0,0,0,1.206.5L12.888,52.9A.682.682,0,0,0,13.1,52.4Z" transform="translate(0 -45.323)" fill="#4262ff"/>
    </g>
  </g>
</svg>
