<svg xmlns="http://www.w3.org/2000/svg" width="19.326" height="19.349" viewBox="0 0 19.326 19.349">
  <g id="upload-folder" transform="translate(-0.286)">
    <g id="Group_11205" data-name="Group 11205" transform="translate(0.286 5.906)">
      <path id="Path_13105" data-name="Path 13105" d="M18.971,150.8h-5.65a1.978,1.978,0,0,1-.559,1.282H18.33v4.27l-.665-2.343a.641.641,0,0,0-.617-.466H3.491v-3.565H7.418V148.7H2.85a.641.641,0,0,0-.641.641v4.206H.927a.641.641,0,0,0-.617.816L2.139,160.8a1.1,1.1,0,0,0,1.055.8l15.321,0a1.1,1.1,0,0,0,1.1-1.1v-9.058A.641.641,0,0,0,18.971,150.8Z" transform="translate(-0.286 -148.699)" fill="#0e0024"/>
      <path id="Path_13106" data-name="Path 13106" d="M486.852,487.04v-.006C486.849,487.039,486.849,487.041,486.852,487.04Z" transform="translate(-467.525 -473.597)" fill="#0e0024"/>
    </g>
    <path id="Path_13107" data-name="Path 13107" d="M166.518,4.041h1.3V7.9a.708.708,0,0,0,.708.709h1.934a.709.709,0,0,0,.709-.709V4.041h1.3a.532.532,0,0,0,.376-.909L169.87.156a.531.531,0,0,0-.752,0l-2.976,2.976a.532.532,0,0,0,.376.908Z" transform="translate(-159.119)" fill="#0e0024"/>
  </g>
</svg>
