<svg xmlns="http://www.w3.org/2000/svg" width="21.219" height="15.44" viewBox="0 0 21.219 15.44">
  <g id="cloud-computing" transform="translate(0 -66.65)">
    <g id="Group_11200" data-name="Group 11200" transform="translate(0 66.65)">
      <path id="Path_13099" data-name="Path 13099" d="M16.58,82.09H12.027v-4.6h1.5a.471.471,0,0,0,.382-.746l-2.927-4.05a.466.466,0,0,0-.759,0L7.3,76.744a.469.469,0,0,0,.382.746h1.5v4.6h-5.1A4.56,4.56,0,0,1,0,77.528,4.319,4.319,0,0,1,2.142,73.8a2.9,2.9,0,0,1-.178-1.01A2.937,2.937,0,0,1,4.9,69.85a2.889,2.889,0,0,1,1.006.178A5.885,5.885,0,0,1,17.092,71.97a5.12,5.12,0,0,1-.512,10.12Z" transform="translate(0 -66.65)" fill="#0e0024"/>
    </g>
  </g>
</svg>
