<svg xmlns="http://www.w3.org/2000/svg" width="18.848" height="18.848" viewBox="0 0 18.848 18.848">
  <g id="data" transform="translate(-0.34)">
    <path id="Path_32319" data-name="Path 32319" d="M3.793,4.21a4.71,4.71,0,0,1,.079-1.37,2.776,2.776,0,0,1,.732-1.4,3.064,3.064,0,0,1,2.1-.822,6.071,6.071,0,0,1,1.28.087l.1-.556a6.652,6.652,0,0,0-1.4-.1,3.607,3.607,0,0,0-2.476.987,3.335,3.335,0,0,0-.885,1.676,5.281,5.281,0,0,0-.089,1.538Zm0,0" transform="translate(-2.755 -0.051)" fill="#0e0024"/>
    <path id="Path_32320" data-name="Path 32320" d="M8.348,130.76a10.5,10.5,0,0,0,.293,1.018l.534-.182a9.92,9.92,0,0,1-.278-.963Zm0,0" transform="translate(-7.685 -125.368)" fill="#0e0024"/>
    <path id="Path_32321" data-name="Path 32321" d="M27.983,182.843c-.195-.355-.373-.712-.531-1.062l-.514.232c.163.362.349.733.55,1.1Zm0,0" transform="translate(-25.526 -174.455)" fill="#0e0024"/>
    <path id="Path_32322" data-name="Path 32322" d="M65.563,247.6c.184.266.379.536.581.8l.143.186.446-.346-.139-.181c-.2-.259-.387-.521-.566-.781Zm0,0" transform="translate(-62.594 -237.312)" fill="#0e0024"/>
    <path id="Path_32323" data-name="Path 32323" d="M103.334,294.12l-.084-.1-.426.37.086.1c.163.186.334.374.506.558q.116.124.234.247l.407-.391q-.115-.12-.228-.241C103.659,294.485,103.493,294.3,103.334,294.12Zm0,0" transform="translate(-98.354 -282.174)" fill="#0e0024"/>
    <path id="Path_32324" data-name="Path 32324" d="M350.257,277.762l-.517.227a10.306,10.306,0,0,1,.765,2.482,3.713,3.713,0,0,1-.744,3.324,2.771,2.771,0,0,1-1.379.728,4.822,4.822,0,0,1-1.513.072c-.137-.013-.277-.031-.418-.053l-.088.557c.153.024.3.043.453.058q.313.03.609.03a4.938,4.938,0,0,0,1.082-.113,3.326,3.326,0,0,0,1.654-.879,4.241,4.241,0,0,0,.9-3.813A10.863,10.863,0,0,0,350.257,277.762Zm0,0" transform="translate(-332.078 -266.568)" fill="#0e0024"/>
    <path id="Path_32325" data-name="Path 32325" d="M412.646,240.8l-.49.28c.156.273.3.548.436.818l.505-.251C412.959,241.372,412.807,241.087,412.646,240.8Zm0,0" transform="translate(-395.219 -231.1)" fill="#0e0024"/>
    <path id="Path_32326" data-name="Path 32326" d="M376.828,186.615l.466-.318c-.229-.336-.47-.67-.717-.992l-.448.343C376.37,185.962,376.605,186.287,376.828,186.615Zm0,0" transform="translate(-360.645 -177.836)" fill="#0e0024"/>
    <path id="Path_32327" data-name="Path 32327" d="M338.449,140.423l.429-.367c-.264-.309-.54-.614-.821-.908l-.408.39C337.922,139.824,338.191,140.122,338.449,140.423Zm0,0" transform="translate(-323.715 -133.54)" fill="#0e0024"/>
    <path id="Path_32328" data-name="Path 32328" d="M144.519,332.522l-.542.155.293,1.025a13,13,0,0,1-2.305-.964,19.072,19.072,0,0,1-2.809-1.835,22.914,22.914,0,0,1-1.871-1.637l-.394.4a23.432,23.432,0,0,0,1.917,1.677,19.623,19.623,0,0,0,2.892,1.89,14.136,14.136,0,0,0,1.962.862l-.711.2.155.542,1.649-.472a.282.282,0,0,0,.193-.349Zm0,0" transform="translate(-131.048 -315.996)" fill="#0e0024"/>
    <path id="Path_32329" data-name="Path 32329" d="M143.294,2.221l.552-.118-.223-1.044a12.973,12.973,0,0,1,1.8.782,18.883,18.883,0,0,1,2.775,1.791c.411.317.824.661,1.229,1.021.224.2.451.41.672.624.1.093.194.189.291.286l.4-.4c-.1-.1-.2-.2-.3-.293-.227-.219-.458-.434-.688-.639-.415-.37-.839-.722-1.259-1.046s-.867-.645-1.322-.941c.267-.152.535-.3.8-.426l-.251-.505c-.289.143-.583.3-.876.469l.227.4q-.7-.449-1.434-.837a13.491,13.491,0,0,0-1.4-.641l.7-.149L144.861,0l-1.677.358a.282.282,0,0,0-.217.335Zm0,0" transform="translate(-136.874)" fill="#0e0024"/>
    <path id="Path_32330" data-name="Path 32330" d="M3.059,348.8a5.285,5.285,0,0,0,1.073.11q.232,0,.465-.021l-.05-.562a4.716,4.716,0,0,1-1.37-.079,2.775,2.775,0,0,1-1.4-.731,3.064,3.064,0,0,1-.822-2.1,6.081,6.081,0,0,1,.087-1.28l-.556-.1a6.641,6.641,0,0,0-.1,1.4,3.609,3.609,0,0,0,.987,2.477,3.335,3.335,0,0,0,1.676.884Zm0,0" transform="translate(-0.05 -330.17)" fill="#0e0024"/>
    <path id="Path_32331" data-name="Path 32331" d="M132.115,439.792l-.182-.534a9.978,9.978,0,0,1-.963.278l.128.55A10.531,10.531,0,0,0,132.115,439.792Zm0,0" transform="translate(-125.365 -421.555)" fill="#0e0024"/>
    <path id="Path_32332" data-name="Path 32332" d="M183.183,415.262c-.355.195-.712.373-1.062.531l.232.514c.363-.163.733-.349,1.1-.55Zm0,0" transform="translate(-174.455 -398.526)" fill="#0e0024"/>
    <path id="Path_32333" data-name="Path 32333" d="M247.617,374.256l.32.465c.267-.184.536-.379.8-.581l.186-.143-.346-.445-.181.139C248.139,373.887,247.876,374.077,247.617,374.256Zm0,0" transform="translate(-237.312 -358.496)" fill="#0e0024"/>
    <path id="Path_32334" data-name="Path 32334" d="M295.389,335.383q.124-.116.246-.234l-.391-.407q-.12.115-.241.228c-.179.168-.363.334-.545.494l-.1.084.37.426.1-.086C295.018,335.725,295.206,335.555,295.389,335.383Zm0,0" transform="translate(-282.174 -321.252)" fill="#0e0024"/>
    <path id="Path_32335" data-name="Path 32335" d="M334.573,131.062a.283.283,0,0,0-.215-.025l-1.5.43.155.542,1.025-.293a12.984,12.984,0,0,1-.964,2.3,19.052,19.052,0,0,1-1.835,2.809A22.85,22.85,0,0,1,329.6,138.7l.4.394a23.461,23.461,0,0,0,1.677-1.917,19.619,19.619,0,0,0,1.89-2.893,14.145,14.145,0,0,0,.862-1.962l.2.711.542-.155-.472-1.649A.282.282,0,0,0,334.573,131.062Zm0,0" transform="translate(-315.992 -125.746)" fill="#0e0024"/>
    <path id="Path_32336" data-name="Path 32336" d="M280.81,3.557a3.713,3.713,0,0,1,3.324.744,2.772,2.772,0,0,1,.728,1.379,4.822,4.822,0,0,1,.072,1.513c-.013.136-.031.277-.053.418l.557.088c.024-.153.044-.305.058-.453a5.379,5.379,0,0,0-.083-1.691,3.324,3.324,0,0,0-.879-1.654,4.241,4.241,0,0,0-3.813-.9,10.869,10.869,0,0,0-2.62.806l.227.517a10.306,10.306,0,0,1,2.482-.765Zm0,0" transform="translate(-266.567 -2.792)" fill="#0e0024"/>
    <path id="Path_32337" data-name="Path 32337" d="M140.76,100.417l-.367-.429c-.309.264-.614.54-.908.821l.39.408C140.16,100.944,140.458,100.675,140.76,100.417Zm0,0" transform="translate(-133.537 -95.959)" fill="#0e0024"/>
    <path id="Path_32338" data-name="Path 32338" d="M186.954,63.56l-.318-.466c-.336.229-.67.47-.992.717l.343.448c.315-.241.64-.476.968-.7Zm0,0" transform="translate(-177.836 -60.551)" fill="#0e0024"/>
    <path id="Path_32339" data-name="Path 32339" d="M.974,138.882a.277.277,0,0,0,.059-.006l1.528-.326L2.442,138,1.4,138.22a12.962,12.962,0,0,1,.782-1.8,18.877,18.877,0,0,1,1.791-2.775c.317-.41.66-.824,1.021-1.229.2-.225.41-.451.624-.672.094-.1.19-.195.286-.291l-.4-.4c-.1.1-.2.2-.293.3-.219.227-.434.458-.639.688-.37.415-.722.839-1.047,1.259a19.443,19.443,0,0,0-1.844,2.857,13.539,13.539,0,0,0-.641,1.4l-.149-.7-.552.118L.7,138.658a.282.282,0,0,0,.276.223Zm0,0" transform="translate(0 -125.777)" fill="#0e0024"/>
    <path id="Path_32340" data-name="Path 32340" d="M184.565,231.994v-.923a5.028,5.028,0,0,1-2.2.438,4.908,4.908,0,0,1-2.2-.437v.959c0,.067.139.227.532.37a5.02,5.02,0,0,0,1.65.246,5.094,5.094,0,0,0,1.662-.246c.394-.142.548-.3.548-.37Zm0,0" transform="translate(-172.585 -221.758)" fill="#0e0024"/>
    <path id="Path_32341" data-name="Path 32341" d="M184.565,188.863a5.028,5.028,0,0,1-2.2.438,4.9,4.9,0,0,1-2.2-.437v.959c0,.067.139.227.532.37a5.015,5.015,0,0,0,1.65.246,5.094,5.094,0,0,0,1.662-.246c.394-.142.548-.3.548-.37Zm0,0" transform="translate(-172.585 -181.252)" fill="#0e0024"/>
    <path id="Path_32342" data-name="Path 32342" d="M179.684,155.779c0,.067.147.227.54.369a5.706,5.706,0,0,0,3.316,0c.394-.142.54-.3.54-.369s-.147-.227-.54-.37a5.71,5.71,0,0,0-3.316,0C179.831,155.552,179.684,155.712,179.684,155.779Zm0,0" transform="translate(-172.116 -148.91)" fill="#0e0024"/>
    <path id="Path_32343" data-name="Path 32343" d="M184.565,274.247v-.97a5.028,5.028,0,0,1-2.2.437,4.906,4.906,0,0,1-2.2-.437v.97c0,.067.139.227.532.37a5.067,5.067,0,0,0,1.675.246,6.008,6.008,0,0,0,1.088-.1C184.237,274.616,184.565,274.354,184.565,274.247Zm0,0" transform="translate(-172.585 -262.263)" fill="#0e0024"/>
  </g>
</svg>
