<svg xmlns="http://www.w3.org/2000/svg" width="12.188" height="18.805" viewBox="0 0 12.188 18.805">
  <g id="Online_1_" transform="translate(-90.078)">
    <path id="Path_32353" data-name="Path 32353" d="M100.812,2.214A5.992,5.992,0,0,0,96.176,0h-.007a5.992,5.992,0,0,0-4.637,2.214,7.275,7.275,0,0,0-1.265,6.16l.09.441H92.39a4.4,4.4,0,0,1,0-4.407h-.847a5.19,5.19,0,0,1,.845-1.5,4.866,4.866,0,0,1,7.568,0,5.19,5.19,0,0,1,.845,1.5h-.779a4.4,4.4,0,0,1,0,4.407h1.965l.09-.441A7.275,7.275,0,0,0,100.812,2.214Z" transform="translate(0 0)" fill="#0e0024"/>
    <path id="Path_32354" data-name="Path 32354" d="M91.919,360v5.583H104.04V360Zm6.611,3.342h-1.1v-1.1h1.1Z" transform="translate(-1.773 -346.776)" fill="#0e0024"/>
    <g id="Group_11374" data-name="Group 11374" transform="translate(92.901 3.306)">
      <circle id="Ellipse_880" data-name="Ellipse 880" cx="3.306" cy="3.306" r="3.306" fill="#0e0024"/>
    </g>
    <path id="Path_32355" data-name="Path 32355" d="M152.894,272.2a4.96,4.96,0,0,0-8.247,0Z" transform="translate(-52.564 -260.081)" fill="#0e0024"/>
  </g>
</svg>
