<svg id="communication_1_" data-name="communication (1)" xmlns="http://www.w3.org/2000/svg" width="16.755" height="16.755" viewBox="0 0 16.755 16.755">
  <g id="Group_11207" data-name="Group 11207" transform="translate(1.473 9.392)">
    <g id="Group_11206" data-name="Group 11206">
      <path id="Path_13114" data-name="Path 13114" d="M46.473,287a1.473,1.473,0,1,0,1.473,1.473A1.474,1.474,0,0,0,46.473,287Z" transform="translate(-45 -287)" fill="#0e0024"/>
    </g>
  </g>
  <g id="Group_11209" data-name="Group 11209" transform="translate(0 12.337)">
    <g id="Group_11208" data-name="Group 11208">
      <path id="Path_13115" data-name="Path 13115" d="M3.927,377H1.964A1.965,1.965,0,0,0,0,378.964v1.964a.491.491,0,0,0,.491.491H5.4a.491.491,0,0,0,.491-.491v-1.964A1.965,1.965,0,0,0,3.927,377Z" transform="translate(0 -377)" fill="#0e0024"/>
    </g>
  </g>
  <g id="Group_11211" data-name="Group 11211" transform="translate(12.337 9.392)">
    <g id="Group_11210" data-name="Group 11210">
      <path id="Path_13116" data-name="Path 13116" d="M378.473,287a1.473,1.473,0,1,0,1.473,1.473A1.474,1.474,0,0,0,378.473,287Z" transform="translate(-377 -287)" fill="#0e0024"/>
    </g>
  </g>
  <g id="Group_11213" data-name="Group 11213" transform="translate(10.865 12.337)">
    <g id="Group_11212" data-name="Group 11212">
      <path id="Path_13117" data-name="Path 13117" d="M335.927,377h-1.964A1.965,1.965,0,0,0,332,378.964v1.964a.491.491,0,0,0,.491.491H337.4a.491.491,0,0,0,.491-.491v-1.964A1.965,1.965,0,0,0,335.927,377Z" transform="translate(-332 -377)" fill="#0e0024"/>
    </g>
  </g>
  <g id="Group_11215" data-name="Group 11215" transform="translate(1.996)">
    <g id="Group_11214" data-name="Group 11214">
      <path id="Path_13118" data-name="Path 13118" d="M67.381,0H63.454A2.454,2.454,0,0,0,61,2.454V5.4A2.459,2.459,0,0,0,62.964,7.8V9.327a.491.491,0,0,0,.838.347l1.82-1.82h1.76A2.454,2.454,0,0,0,69.836,5.4V2.454A2.454,2.454,0,0,0,67.381,0Zm-.144,2.8L65.274,4.765a.491.491,0,0,1-.694,0L63.6,3.783a.491.491,0,0,1,.694-.694l.635.635,1.616-1.616a.491.491,0,1,1,.694.694Z" transform="translate(-61)" fill="#0e0024"/>
    </g>
  </g>
  <g id="Group_11217" data-name="Group 11217" transform="translate(10.426 0.982)">
    <g id="Group_11216" data-name="Group 11216">
      <path id="Path_13119" data-name="Path 13119" d="M320.468,30h-.836a3.4,3.4,0,0,1,.345,1.473v2.945a3.423,3.423,0,0,1-1.388,2.742l1.532,1.532a.491.491,0,0,0,.838-.347V36.823a2.459,2.459,0,0,0,1.964-2.4V32.454A2.454,2.454,0,0,0,320.468,30Z" transform="translate(-318.589 -30)" fill="#0e0024"/>
    </g>
  </g>
</svg>
