<svg xmlns="http://www.w3.org/2000/svg" width="16.962" height="16.938" viewBox="0 0 16.962 16.938">
  <g id="profile" transform="translate(0 -0.174)">
    <circle id="Ellipse_878" data-name="Ellipse 878" cx="3.452" cy="3.452" r="3.452" transform="translate(3.154 0.174)" fill="#0e0024"/>
    <path id="Path_13132" data-name="Path 13132" d="M8.58,18.546a1.865,1.865,0,0,1,.151-2.083A1.865,1.865,0,0,1,8.58,14.38l.6-1.041a1.865,1.865,0,0,1,1.611-.93,1.894,1.894,0,0,1,.269.019,1.932,1.932,0,0,1,.086-.176A3.509,3.509,0,0,0,9.857,12H3.534A3.538,3.538,0,0,0,0,15.534v2.6a.558.558,0,0,0,.558.558H8.666Z" transform="translate(0 -3.071)" fill="#0e0024"/>
    <path id="Path_13133" data-name="Path 13133" d="M19.525,17.068a2.7,2.7,0,0,0,.035-.349,2.827,2.827,0,0,0-.035-.349l.67-.507a.372.372,0,0,0,.1-.483l-.6-1.041a.372.372,0,0,0-.466-.157l-.771.325a2.764,2.764,0,0,0-.609-.362l-.1-.819A.372.372,0,0,0,17.372,13h-1.2a.372.372,0,0,0-.369.326l-.1.819a2.775,2.775,0,0,0-.609.362l-.771-.325a.371.371,0,0,0-.466.157l-.6,1.041a.373.373,0,0,0,.1.483l.67.507a2.7,2.7,0,0,0-.035.349,2.827,2.827,0,0,0,.035.349l-.67.507a.372.372,0,0,0-.1.483l.6,1.042a.372.372,0,0,0,.466.157l.771-.326a2.764,2.764,0,0,0,.609.362l.1.819a.371.371,0,0,0,.368.326h1.2a.372.372,0,0,0,.369-.326l.1-.819a2.775,2.775,0,0,0,.609-.362l.771.325a.371.371,0,0,0,.466-.157l.6-1.042a.373.373,0,0,0-.1-.483ZM16.77,18.207a1.488,1.488,0,1,1,1.488-1.488A1.487,1.487,0,0,1,16.77,18.207Z" transform="translate(-3.38 -3.327)" fill="#0e0024"/>
  </g>
</svg>
