<svg xmlns="http://www.w3.org/2000/svg" width="23.521" height="14.665" viewBox="0 0 23.521 14.665">
  <path id="cloudversify-brands" d="M5.674,73.167c.313,2.616,2.574,4.411,5.575,4.25a5.352,5.352,0,0,0,7.118-.214,4.95,4.95,0,0,0,1.5-9.722c-1.26-3.364-5.018-3.876-7.122-3.246a5.246,5.246,0,0,0-3.792,4.189,5.323,5.323,0,0,0-1.718.92c.447,0,.58.34.58.745v.779a.746.746,0,0,1-.745.745H6.3a.664.664,0,0,1-.745-.638v-.252H3.773a.465.465,0,0,0-.412.454V72.72a.453.453,0,0,0,.447.451H5.674Zm8.684.305c-.409,1.768.829,2.765,2.112,3.315-4.094,1.291-6.553-1.94-5.167-4.231-1.268.825-1.287,2.719-1.115,3.548A3.988,3.988,0,0,1,8,73.056a3.793,3.793,0,0,1,2.177-3.586,4.4,4.4,0,0,1,5.1,1.558,4.089,4.089,0,0,0-3.887-2.856A4.871,4.871,0,0,1,15.748,66.5c2.665.355,5.086,3.162,2.585,5.747a3.264,3.264,0,0,0,1.814-2.937l.4.748a3.9,3.9,0,0,1-2.684,5.671,2.835,2.835,0,0,1-3.506-2.261ZM4.888,69.5H3.368a.621.621,0,0,1-.619-.619V67.37a.621.621,0,0,1,.619-.619h1.52a.621.621,0,0,1,.619.619v1.512A.621.621,0,0,1,4.888,69.5Zm-4.5-1.527A.385.385,0,0,1,0,67.588V66.527a.385.385,0,0,1,.386-.386H1.443a.387.387,0,0,1,.386.386v1.062a.385.385,0,0,1-.386.386Zm6.03-.966v-.817a.357.357,0,0,1,.355-.355h.817a.357.357,0,0,1,.355.355v.817a.357.357,0,0,1-.355.355H6.77A.357.357,0,0,1,6.415,67.008ZM2.138,70.551v.955a.438.438,0,0,1-.435.439H.741a.438.438,0,0,1-.435-.439v-.955a.438.438,0,0,1,.435-.439H1.7A.439.439,0,0,1,2.138,70.551Z" transform="translate(0 -64.002)" fill="#0e0024"/>
</svg>
