<svg xmlns="http://www.w3.org/2000/svg" width="16.026" height="11.42" viewBox="0 0 16.026 11.42">
  <g id="api" transform="translate(0 -73.56)">
    <g id="Group_11219" data-name="Group 11219" transform="translate(8.482 79.31)">
      <g id="Group_11218" data-name="Group 11218" transform="translate(0 0)">
        <path id="Path_13120" data-name="Path 13120" d="M271.759,257.264H271v.8h.759a.4.4,0,1,0,0-.8Z" transform="translate(-271 -257.264)" fill="#0e0024"/>
      </g>
    </g>
    <g id="Group_11221" data-name="Group 11221" transform="translate(4.796 79.31)">
      <g id="Group_11220" data-name="Group 11220" transform="translate(0 0)">
        <path id="Path_13121" data-name="Path 13121" d="M153.808,257.266a.58.58,0,0,0-.579.579v.22h1.159v-.22A.58.58,0,0,0,153.808,257.266Z" transform="translate(-153.229 -257.266)" fill="#0e0024"/>
      </g>
    </g>
    <g id="Group_11223" data-name="Group 11223" transform="translate(0 76.828)">
      <g id="Group_11222" data-name="Group 11222" transform="translate(0 0)">
        <path id="Path_13122" data-name="Path 13122" d="M0,177.964v6.744a1.41,1.41,0,0,0,1.408,1.409H14.617a1.41,1.41,0,0,0,1.408-1.409v-6.744Zm6.894,5.11a.469.469,0,1,1-.939,0v-.89H4.8v.89a.469.469,0,0,1-.939,0v-2.049h0a1.518,1.518,0,1,1,3.037,0v2.049Zm2.348-.89H8.482v.89a.469.469,0,0,1-.939,0v-3.1a.469.469,0,0,1,.469-.469H9.241a1.339,1.339,0,1,1,0,2.677Zm2.927.89a.469.469,0,0,1-.939,0v-3.1a.469.469,0,0,1,.939,0Z" transform="translate(0 -177.964)" fill="#0e0024"/>
      </g>
    </g>
    <g id="Group_11225" data-name="Group 11225" transform="translate(0 73.56)">
      <g id="Group_11224" data-name="Group 11224" transform="translate(0 0)">
        <path id="Path_13123" data-name="Path 13123" d="M14.617,73.56H1.408A1.41,1.41,0,0,0,0,74.968v.92H16.026v-.92A1.41,1.41,0,0,0,14.617,73.56Z" transform="translate(0 -73.56)" fill="#0e0024"/>
      </g>
    </g>
  </g>
</svg>
