<svg xmlns="http://www.w3.org/2000/svg" width="14.749" height="19.666" viewBox="0 0 14.749 19.666">
  <path id="Path_32309" data-name="Path 32309" d="M6.458,2A2.458,2.458,0,0,0,4,4.458V19.207a2.458,2.458,0,0,0,2.458,2.458h9.833a2.458,2.458,0,0,0,2.458-2.458V8.654a2.458,2.458,0,0,0-.72-1.738l-4.2-4.2A2.458,2.458,0,0,0,12.095,2ZM8.916,14.291a1.229,1.229,0,1,0-2.458,0v3.687a1.229,1.229,0,0,0,2.458,0ZM11.374,10.6A1.229,1.229,0,0,1,12.6,11.833v6.145a1.229,1.229,0,1,1-2.458,0V11.833A1.229,1.229,0,0,1,11.374,10.6Zm4.916-1.229a1.229,1.229,0,1,0-2.458,0v8.6a1.229,1.229,0,1,0,2.458,0Z" transform="translate(-4 -2)" fill="#0e0024" fill-rule="evenodd"/>
</svg>
