<svg xmlns="http://www.w3.org/2000/svg" width="10.063" height="9.638" viewBox="0 0 10.063 9.638">
  <path id="Path_13222" data-name="Path 13222" d="M6.954,2.7a.677.677,0,0,1,1.287,0l.724,2.228a.677.677,0,0,0,.643.467h2.343a.677.677,0,0,1,.4,1.225L10.455,8a.677.677,0,0,0-.246.757l.724,2.228a.677.677,0,0,1-1.042.757l-1.9-1.377a.677.677,0,0,0-.8,0L5.3,11.742a.677.677,0,0,1-1.042-.757l.724-2.228A.677.677,0,0,0,4.741,8L2.846,6.625a.677.677,0,0,1,.4-1.225H5.587a.677.677,0,0,0,.644-.467L6.955,2.7Z" transform="translate(-2.566 -2.236)" fill="#4262ff"/>
</svg>
