<svg xmlns="http://www.w3.org/2000/svg" width="16.671" height="12.503" viewBox="0 0 16.671 12.503">
  <path id="Path_13585" data-name="Path 13585" d="M2,6.084A2.084,2.084,0,0,1,4.084,4h6.252a2.084,2.084,0,0,1,2.084,2.084v8.335A2.084,2.084,0,0,1,10.335,16.5H4.084A2.084,2.084,0,0,1,2,14.419ZM15.079,7.236a1.042,1.042,0,0,0-.576.931v4.168a1.042,1.042,0,0,0,.576.931l2.084,1.042a1.042,1.042,0,0,0,1.508-.931V7.126a1.042,1.042,0,0,0-1.508-.931L15.079,7.236Z" transform="translate(-2 -4)" fill="#4262ff"/>
</svg>
