<svg xmlns="http://www.w3.org/2000/svg" width="28.369" height="17.687" viewBox="0 0 28.369 17.687">
  <path id="cloudversify-brands" d="M6.844,75.056c.378,3.155,3.1,5.319,6.724,5.126a6.455,6.455,0,0,0,8.585-.258A5.97,5.97,0,0,0,23.967,68.2c-1.52-4.058-6.052-4.675-8.589-3.915-2.639.8-3.883,2.45-4.573,5.052a6.42,6.42,0,0,0-2.073,1.11c.539,0,.7.41.7.9v.94a.9.9,0,0,1-.9.9H7.6a.8.8,0,0,1-.9-.769v-.3H4.55a.561.561,0,0,0-.5.548v1.861a.547.547,0,0,0,.539.543H6.844Zm10.473.368c-.493,2.132,1,3.334,2.547,4-4.937,1.557-7.9-2.34-6.231-5.1C12.1,75.314,12.08,77.6,12.288,78.6a4.81,4.81,0,0,1-2.644-3.675A4.575,4.575,0,0,1,12.269,70.6a5.3,5.3,0,0,1,6.153,1.879c-.649-2.211-2.478-3.229-4.688-3.445a5.874,5.874,0,0,1,5.26-2.013c3.215.428,6.135,3.813,3.118,6.931A3.936,3.936,0,0,0,24.3,70.409l.484.9a4.7,4.7,0,0,1-3.238,6.839,3.419,3.419,0,0,1-4.228-2.727ZM5.9,70.634H4.062a.749.749,0,0,1-.746-.746V68.065a.749.749,0,0,1,.746-.746H5.9a.749.749,0,0,1,.746.746v1.824A.749.749,0,0,1,5.9,70.634ZM.465,68.792A.464.464,0,0,1,0,68.327v-1.28a.464.464,0,0,1,.465-.465H1.741a.467.467,0,0,1,.465.465v1.28a.464.464,0,0,1-.465.465Zm7.272-1.165v-.986a.43.43,0,0,1,.428-.428h.986a.43.43,0,0,1,.428.428v.986a.43.43,0,0,1-.428.428H8.166A.43.43,0,0,1,7.737,67.627ZM2.579,71.9v1.151a.529.529,0,0,1-.525.53H.893a.529.529,0,0,1-.525-.53V71.9a.529.529,0,0,1,.525-.53H2.049A.53.53,0,0,1,2.579,71.9Z" transform="translate(0 -64.002)" fill="#4262ff"/>
</svg>
