<svg xmlns="http://www.w3.org/2000/svg" width="14.935" height="11.616" viewBox="0 0 14.935 11.616">
  <path id="images-solid" d="M12.446,41.957v.415A1.245,1.245,0,0,1,11.2,43.616H1.245A1.245,1.245,0,0,1,0,42.372V35.734a1.245,1.245,0,0,1,1.245-1.245h.415v5.393a2.077,2.077,0,0,0,2.074,2.074Zm2.489-2.074V33.245A1.245,1.245,0,0,0,13.69,32H3.734a1.245,1.245,0,0,0-1.245,1.245v6.638a1.245,1.245,0,0,0,1.245,1.245H13.69A1.245,1.245,0,0,0,14.935,39.882Zm-8.3-5.393a1.245,1.245,0,1,1-1.245-1.245A1.245,1.245,0,0,1,6.638,34.489ZM4.149,38.223l1.439-1.439a.311.311,0,0,1,.44,0l1.025,1.025,3.514-3.514a.311.311,0,0,1,.44,0l2.269,2.269v2.9H4.149Z" transform="translate(0 -32)" fill="#dfdfdf"/>
</svg>
