<svg xmlns="http://www.w3.org/2000/svg" width="13.007" height="13.007" viewBox="0 0 13.007 13.007">
  <path id="Path_13584" data-name="Path 13584" d="M3,3.929A.929.929,0,0,1,3.929,3H15.078a.929.929,0,0,1,.929.929V5.787a.929.929,0,0,1-.929.929H3.929A.929.929,0,0,1,3,5.787ZM3,9.5a.929.929,0,0,1,.929-.929H9.5a.929.929,0,0,1,.929.929v5.574a.929.929,0,0,1-.929.929H3.929A.929.929,0,0,1,3,15.078Zm10.219-.929a.929.929,0,0,0-.929.929v5.574a.929.929,0,0,0,.929.929h1.858a.929.929,0,0,0,.929-.929V9.5a.929.929,0,0,0-.929-.929Z" transform="translate(-3 -3)" fill="#4262ff"/>
</svg>
