<svg xmlns="http://www.w3.org/2000/svg" width="15.488" height="11.616" viewBox="0 0 15.488 11.616">
  <path id="chart-bar-solid" d="M10.067,71.744h1.162a.416.416,0,0,0,.387-.387V67.291a.416.416,0,0,0-.387-.387H10.067a.416.416,0,0,0-.387.387v4.066A.416.416,0,0,0,10.067,71.744Zm2.9,0h1.162a.416.416,0,0,0,.387-.387v-6.97A.416.416,0,0,0,14.133,64H12.971a.416.416,0,0,0-.387.387v6.97A.416.416,0,0,0,12.971,71.744Zm-8.712,0H5.421a.416.416,0,0,0,.387-.387v-2.13a.416.416,0,0,0-.387-.387H4.259a.416.416,0,0,0-.387.387v2.13A.416.416,0,0,0,4.259,71.744Zm2.9,0H8.325a.416.416,0,0,0,.387-.387v-6a.416.416,0,0,0-.387-.387H7.163a.416.416,0,0,0-.387.387v6A.416.416,0,0,0,7.163,71.744ZM15,73.68H1.936v-9.2A.484.484,0,0,0,1.452,64H.484A.484.484,0,0,0,0,64.484V74.648a.968.968,0,0,0,.968.968H15a.484.484,0,0,0,.484-.484v-.968A.484.484,0,0,0,15,73.68Z" transform="translate(0 -64)" fill="#dfdfdf"/>
</svg>
