<svg xmlns="http://www.w3.org/2000/svg" width="13.204" height="13.205" viewBox="0 0 13.204 13.205">
  <path id="Path_13583" data-name="Path 13583" d="M5.487,1.751a.785.785,0,1,0-1.516.406l.2.758A.785.785,0,0,0,5.69,2.509l-.2-.758ZM2.158,3.971a.785.785,0,1,0-.406,1.516l.758.2a.785.785,0,1,0,.406-1.516l-.758-.2Zm6.915-.446a.785.785,0,0,0-1.11-1.109l-.555.555a.785.785,0,1,0,1.11,1.11ZM3.525,9.073l.555-.555A.785.785,0,0,0,2.971,7.407l-.555.555a.785.785,0,0,0,1.11,1.11ZM6.036,5.016a.785.785,0,0,0-1.02,1.02l3.138,7.846a.785.785,0,0,0,1.43.059l1.083-2.165,2.368,2.369a.785.785,0,0,0,1.109-1.11l-2.369-2.369,2.165-1.082a.785.785,0,0,0-.06-1.429L6.036,5.016Z" transform="translate(-1.17 -1.17)" fill="#dfdfdf" fill-rule="evenodd"/>
</svg>
