<svg xmlns="http://www.w3.org/2000/svg" width="41.456" height="25.847" viewBox="0 0 41.456 25.847">
  <path id="cloudversify-brands" d="M10,80.156c.552,4.61,4.536,7.774,9.826,7.491,3.446,2.914,9.207,3.083,12.545-.377a8.724,8.724,0,0,0,2.652-17.136C32.8,64.2,26.181,63.3,22.473,64.413c-3.856,1.164-5.674,3.581-6.683,7.383a9.382,9.382,0,0,0-3.029,1.622c.787,0,1.023.6,1.023,1.312V76.1a1.314,1.314,0,0,1-1.312,1.312h-1.36A1.17,1.17,0,0,1,9.8,76.292v-.444H6.65a.82.82,0,0,0-.727.8v2.719a.8.8,0,0,0,.787.794H10Zm15.3.538c-.72,3.116,1.46,4.873,3.722,5.842-7.215,2.275-11.549-3.419-9.106-7.457-2.234,1.454-2.268,4.792-1.965,6.253-1.2-.835-3.621-2.181-3.863-5.371a6.685,6.685,0,0,1,3.836-6.32c2.059-1.063,6.966-.572,8.992,2.746-.949-3.231-3.621-4.718-6.851-5.034,2.08-2.066,4.334-3.385,7.686-2.941,4.7.626,8.965,5.573,4.556,10.129a5.752,5.752,0,0,0,3.2-5.176l.707,1.319a6.868,6.868,0,0,1-4.731,9.995c-2.16.424-5.593-.343-6.178-3.984Zm-16.691-7H5.936a1.094,1.094,0,0,1-1.09-1.09V69.939a1.094,1.094,0,0,1,1.09-1.09H8.615a1.094,1.094,0,0,1,1.09,1.09V72.6A1.094,1.094,0,0,1,8.615,73.694ZM.68,71a.678.678,0,0,1-.68-.68V68.451a.678.678,0,0,1,.68-.68H2.544a.682.682,0,0,1,.68.68v1.871a.678.678,0,0,1-.68.68Zm10.627-1.7v-1.44a.629.629,0,0,1,.626-.626h1.44a.629.629,0,0,1,.626.626V69.3a.629.629,0,0,1-.626.626h-1.44A.629.629,0,0,1,11.307,69.3ZM3.769,75.545v1.683A.773.773,0,0,1,3,78h-1.7a.773.773,0,0,1-.767-.774V75.545a.773.773,0,0,1,.767-.774H2.995A.774.774,0,0,1,3.769,75.545Z" transform="translate(0 -64.002)" fill="#4262ff"/>
</svg>
