<svg xmlns="http://www.w3.org/2000/svg" width="22.852" height="22.852" viewBox="0 0 22.852 22.852">
  <path id="pen-fancy-solid" d="M3.051,10.9a1.233,1.233,0,0,0-.78.78L0,18.492l.181.181L3.76,15.094a1.186,1.186,0,0,1-.06-.3,1.233,1.233,0,1,1,1.233,1.233,1.186,1.186,0,0,1-.3-.06L1.053,19.545l.18.18,6.813-2.271a1.232,1.232,0,0,0,.78-.78L10.1,13.435,6.29,9.625Zm11.176-9.81L7.172,8.775l3.77,3.77L18.628,5.49C21.9,2.6,17.1-2.157,14.227,1.089Z" transform="matrix(0.985, 0.174, -0.174, 0.985, 3.425, 0.002)" fill="#fbfbfb"/>
</svg>
