<svg id="teamwork" xmlns="http://www.w3.org/2000/svg" width="14.728" height="14.728" viewBox="0 0 14.728 14.728">
  <g id="Group_11239" data-name="Group 11239" transform="translate(9.521 6.932)">
    <g id="Group_11238" data-name="Group 11238">
      <path id="Path_13141" data-name="Path 13141" d="M333.157,241a2.157,2.157,0,1,0,2.157,2.157A2.16,2.16,0,0,0,333.157,241Z" transform="translate(-331 -241)" fill="#fff"/>
    </g>
  </g>
  <g id="Group_11241" data-name="Group 11241" transform="translate(8.658 11.247)">
    <g id="Group_11240" data-name="Group 11240">
      <path id="Path_13142" data-name="Path 13142" d="M306.127,391a3,3,0,0,1-4.214,0,3.008,3.008,0,0,0-.913,2.157v.892a.431.431,0,0,0,.431.431h5.206a.431.431,0,0,0,.431-.431v-.892A3.034,3.034,0,0,0,306.127,391Z" transform="translate(-301 -391)" fill="#fff"/>
    </g>
  </g>
  <g id="Group_11243" data-name="Group 11243" transform="translate(0.892)">
    <g id="Group_11242" data-name="Group 11242">
      <path id="Path_13143" data-name="Path 13143" d="M33.157,0A2.185,2.185,0,0,0,31,2.186a2.157,2.157,0,0,0,4.315,0A2.185,2.185,0,0,0,33.157,0Z" transform="translate(-31)" fill="#fff"/>
    </g>
  </g>
  <g id="Group_11245" data-name="Group 11245" transform="translate(0 4.343)">
    <g id="Group_11244" data-name="Group 11244">
      <path id="Path_13144" data-name="Path 13144" d="M5.156,151a3,3,0,0,1-4.214,0A3.034,3.034,0,0,0,0,153.157v.863a.431.431,0,0,0,.431.431H5.638a.431.431,0,0,0,.431-.431v-.863A3.008,3.008,0,0,0,5.156,151Z" transform="translate(0 -151)" fill="#fff"/>
    </g>
  </g>
  <g id="Group_11247" data-name="Group 11247" transform="translate(6 1.755)">
    <g id="Group_11246" data-name="Group 11246">
      <path id="Path_13145" data-name="Path 13145" d="M209.96,61a5.607,5.607,0,0,0-1.321.17c.008.088.026.172.026.262a3.013,3.013,0,0,1-.069.633,4.738,4.738,0,0,1,5.932,3.276,3,3,0,0,1,.939.222A5.616,5.616,0,0,0,209.96,61Z" transform="translate(-208.596 -61)" fill="#fff"/>
    </g>
  </g>
  <g id="Group_11249" data-name="Group 11249" transform="translate(1.911 8.658)">
    <g id="Group_11248" data-name="Group 11248">
      <path id="Path_13146" data-name="Path 13146" d="M71.9,304.452A4.751,4.751,0,0,1,67.341,301h-.89a5.615,5.615,0,0,0,5.452,4.315c.16,0,.319-.011.477-.024a3.825,3.825,0,0,1,.21-.894A4.78,4.78,0,0,1,71.9,304.452Z" transform="translate(-66.451 -301)" fill="#fff"/>
    </g>
  </g>
</svg>
