<svg xmlns="http://www.w3.org/2000/svg" width="13.762" height="13.763" viewBox="0 0 13.762 13.763">
  <path id="Path_13583" data-name="Path 13583" d="M5.669,1.776a.818.818,0,1,0-1.58.424l.212.79a.818.818,0,0,0,1.58-.424l-.213-.79ZM2.2,4.089a.818.818,0,1,0-.423,1.58l.79.212A.818.818,0,1,0,2.989,4.3L2.2,4.088Zm7.207-.465A.818.818,0,0,0,8.25,2.468l-.578.578A.818.818,0,1,0,8.829,4.2ZM3.625,9.407,4.2,8.829A.818.818,0,0,0,3.047,7.671l-.579.578A.818.818,0,0,0,3.625,9.406ZM6.242,5.178A.818.818,0,0,0,5.179,6.241l3.271,8.177a.818.818,0,0,0,1.491.061l1.128-2.256,2.468,2.47a.818.818,0,0,0,1.156-1.157l-2.469-2.47,2.257-1.128a.818.818,0,0,0-.062-1.49L6.242,5.178Z" transform="translate(-1.17 -1.17)" fill="#fff" fill-rule="evenodd"/>
</svg>
