<svg xmlns="http://www.w3.org/2000/svg" width="12.266" height="16.355" viewBox="0 0 12.266 16.355">
  <g id="Group_12" data-name="Group 12" transform="translate(-4 -2)">
    <path id="Path_12973" data-name="Path 12973" d="M8,3.022A1.022,1.022,0,0,1,9.022,2h2.044a1.022,1.022,0,0,1,0,2.044H9.022A1.022,1.022,0,0,1,8,3.022Z" transform="translate(0.089)" fill="#fff"/>
    <path id="Path_12974" data-name="Path 12974" d="M6.044,3A2.044,2.044,0,0,0,4,5.044V16.288a2.044,2.044,0,0,0,2.044,2.044h8.177a2.044,2.044,0,0,0,2.044-2.044V5.044A2.044,2.044,0,0,0,14.222,3a3.067,3.067,0,0,1-3.067,3.067H9.111A3.067,3.067,0,0,1,6.044,3Z" transform="translate(0 0.022)" fill="#fff"/>
  </g>
</svg>
