<svg id="intersect" xmlns="http://www.w3.org/2000/svg" width="16.789" height="16.789" viewBox="0 0 16.789 16.789">
  <path id="Path_13138" data-name="Path 13138" d="M6.427,5.935h4.427V.492A.492.492,0,0,0,10.362,0H.492A.492.492,0,0,0,0,.492v9.87a.492.492,0,0,0,.492.492H5.935V6.427A.492.492,0,0,1,6.427,5.935Z" fill="#fff"/>
  <path id="Path_13139" data-name="Path 13139" d="M191.362,181h-5.443v4.427a.492.492,0,0,1-.492.492H181v5.443a.492.492,0,0,0,.492.492h9.87a.492.492,0,0,0,.492-.492v-9.87A.492.492,0,0,0,191.362,181Z" transform="translate(-175.065 -175.065)" fill="#fff"/>
</svg>
