<svg xmlns="http://www.w3.org/2000/svg" width="18.765" height="18.391" viewBox="0 0 18.765 18.391">
  <g id="web-hosting" transform="translate(0 -0.671)">
    <g id="Group_11199" data-name="Group 11199" transform="translate(0 0.671)">
      <g id="Group_11198" data-name="Group 11198" transform="translate(0 0)">
        <path id="Path_13071" data-name="Path 13071" d="M39.392,14.629a8.6,8.6,0,0,1,1.251.813,9.372,9.372,0,0,0-.563-2c-.626.125-1.314.25-2,.438Z" transform="translate(-27.445 -9.875)" fill="#fff"/>
        <path id="Path_13072" data-name="Path 13072" d="M10.3,29.725a14.962,14.962,0,0,0,1.376,1.5,12.048,12.048,0,0,1-.063-1.5,12.053,12.053,0,0,1,.063-1.5C11.179,28.724,10.742,29.225,10.3,29.725Z" transform="translate(-7.427 -20.53)" fill="#fff"/>
        <path id="Path_13073" data-name="Path 13073" d="M48.832,13.1a17.529,17.529,0,0,1,.751,2.877,16.786,16.786,0,0,1,2.127,2.064c.938-1.438,1.188-2.752.625-3.691-.5-.813-1.564-1.251-3.127-1.251A.4.4,0,0,0,48.832,13.1Z" transform="translate(-35.196 -9.593)" fill="#fff"/>
        <path id="Path_13074" data-name="Path 13074" d="M53.343,29.725a15.033,15.033,0,0,0-1.376-1.5,12.054,12.054,0,0,1,.063,1.5,12.047,12.047,0,0,1-.063,1.5C52.468,30.726,52.906,30.226,53.343,29.725Z" transform="translate(-37.455 -20.53)" fill="#fff"/>
        <path id="Path_13075" data-name="Path 13075" d="M22.623,25.857a16.673,16.673,0,0,0,2.127-1.063,10.547,10.547,0,0,0,1.939-1.314,14.74,14.74,0,0,0,.188-2.378,15.326,15.326,0,0,0-.188-2.377c-.626-.438-1.251-.876-1.939-1.313a22.573,22.573,0,0,0-2.127-1.064A16.861,16.861,0,0,0,20.5,17.413a10.559,10.559,0,0,0-1.939,1.313,15.152,15.152,0,0,0,0,4.755c.626.437,1.251.876,1.939,1.314A16.691,16.691,0,0,0,22.623,25.857Z" transform="translate(-13.24 -11.971)" fill="#fff"/>
        <path id="Path_13076" data-name="Path 13076" d="M26.335,53.983a17.461,17.461,0,0,1-2.815.813c.751,1.5,1.751,2.378,2.815,2.378S28.4,56.236,29.15,54.8A12.774,12.774,0,0,1,26.335,53.983Z" transform="translate(-16.952 -39.096)" fill="#fff"/>
        <path id="Path_13077" data-name="Path 13077" d="M8.56,41.227A17.427,17.427,0,0,1,7.81,38.35a16.686,16.686,0,0,1-2.127-2.065c-.938,1.439-1.188,2.752-.625,3.691.5.813,1.564,1.251,3.127,1.251A.4.4,0,0,0,8.56,41.227Z" transform="translate(-3.431 -26.34)" fill="#fff"/>
        <path id="Path_13078" data-name="Path 13078" d="M8.1,15.87a12.9,12.9,0,0,1,.751-2.877H8.48c-1.5,0-2.627.437-3.128,1.251-.5.876-.313,2.189.626,3.691A22.436,22.436,0,0,1,8.1,15.87Z" transform="translate(-3.663 -9.552)" fill="#fff"/>
        <path id="Path_13079" data-name="Path 13079" d="M26.335,4.982a17.534,17.534,0,0,1,2.815-.813c-.751-1.5-1.751-2.377-2.815-2.377s-2.064.939-2.815,2.377A12.819,12.819,0,0,1,26.335,4.982Z" transform="translate(-16.952 -1.479)" fill="#fff"/>
        <path id="Path_13080" data-name="Path 13080" d="M21.187,47.406a8.615,8.615,0,0,1-1.251-.813,14.28,14.28,0,0,0,.564,1.939c.625-.125,1.314-.25,2-.438A13.331,13.331,0,0,1,21.187,47.406Z" transform="translate(-14.369 -33.769)" fill="#fff"/>
        <path id="Path_13081" data-name="Path 13081" d="M11.864,56.378c-.25,0-.5.063-.751.063A5.387,5.387,0,0,1,8.736,56a9.073,9.073,0,0,0,5.129,2.939A6.045,6.045,0,0,1,11.864,56.378Z" transform="translate(-6.296 -40.552)" fill="#fff"/>
        <path id="Path_13082" data-name="Path 13082" d="M10.727,3.175a3.045,3.045,0,0,1,.751.063A7.1,7.1,0,0,1,13.417.673a9.853,9.853,0,0,0-5.129,2.94A7.668,7.668,0,0,1,10.727,3.175Z" transform="translate(-5.974 -0.672)" fill="#fff"/>
        <path id="Path_13083" data-name="Path 13083" d="M1.564,26.2c.063-.063.063-.125.125-.188-.063-.063-.063-.125-.125-.188A7.531,7.531,0,0,1,.438,23.074,11.112,11.112,0,0,0,0,26.013a9.055,9.055,0,0,0,.5,2.939A6.37,6.37,0,0,1,1.564,26.2Z" transform="translate(0 -16.818)" fill="#fff"/>
        <path id="Path_13084" data-name="Path 13084" d="M43.233,56.439a3.045,3.045,0,0,1-.751-.063,7.109,7.109,0,0,1-1.939,2.565A9.855,9.855,0,0,0,45.673,56,7.69,7.69,0,0,1,43.233,56.439Z" transform="translate(-29.221 -40.551)" fill="#fff"/>
        <path id="Path_13085" data-name="Path 13085" d="M51.95,39.979c.564-.938.25-2.252-.688-3.691a16.733,16.733,0,0,1-2.126,2.064,17.588,17.588,0,0,1-.751,2.878h.375C50.386,41.292,51.512,40.792,51.95,39.979Z" transform="translate(-34.873 -26.342)" fill="#fff"/>
        <path id="Path_13086" data-name="Path 13086" d="M39.394,47.406a13.42,13.42,0,0,1-1.314.688,12.759,12.759,0,0,0,2,.438,8.823,8.823,0,0,0,.563-1.939A8.637,8.637,0,0,1,39.394,47.406Z" transform="translate(-27.446 -33.769)" fill="#fff"/>
        <path id="Path_13087" data-name="Path 13087" d="M21.186,14.792A13.3,13.3,0,0,1,22.5,14.1a12.81,12.81,0,0,0-2-.437,8.815,8.815,0,0,0-.564,1.939A8.666,8.666,0,0,1,21.186,14.792Z" transform="translate(-14.367 -10.037)" fill="#fff"/>
        <path id="Path_13088" data-name="Path 13088" d="M42.1,3.236c.25,0,.5-.063.751-.063a5.389,5.389,0,0,1,2.377.437A9.08,9.08,0,0,0,40.1.671,6.049,6.049,0,0,1,42.1,3.236Z" transform="translate(-28.901 -0.671)" fill="#fff"/>
        <path id="Path_13089" data-name="Path 13089" d="M62.181,23.074a5.387,5.387,0,0,1-1.126,2.752c-.063.063-.063.125-.125.188a7.31,7.31,0,0,1,1.251,2.939,9.365,9.365,0,0,0,.5-2.939A9.07,9.07,0,0,0,62.181,23.074Z" transform="translate(-43.915 -16.818)" fill="#fff"/>
      </g>
    </g>
  </g>
</svg>
