<svg xmlns="http://www.w3.org/2000/svg" width="57.775" height="36.019" viewBox="0 0 57.775 36.019">
  <path id="cloudversify-brands" d="M13.938,86.513c.769,6.425,6.322,10.833,13.694,10.439,4.8,4.061,12.831,4.3,17.484-.525a12.158,12.158,0,0,0,3.7-23.88c-3.1-8.263-12.325-9.52-17.493-7.973C25.944,66.2,23.411,69.564,22,74.864a13.075,13.075,0,0,0-4.221,2.26c1.1,0,1.426.835,1.426,1.829v1.913A1.831,1.831,0,0,1,17.38,82.7H15.486a1.63,1.63,0,0,1-1.829-1.566V80.51H9.267a1.143,1.143,0,0,0-1.013,1.116v3.789a1.113,1.113,0,0,0,1.1,1.107h4.587Zm21.329.75c-1,4.343,2.035,6.791,5.187,8.141-10.055,3.17-16.1-4.765-12.691-10.393-3.114,2.026-3.161,6.678-2.739,8.714-1.679-1.163-5.046-3.039-5.384-7.485a9.317,9.317,0,0,1,5.346-8.807c2.87-1.482,9.708-.8,12.531,3.827-1.323-4.5-5.046-6.575-9.548-7.016,2.9-2.88,6.04-4.718,10.711-4.1,6.547.872,12.494,7.766,6.35,14.116a8.016,8.016,0,0,0,4.455-7.213l.985,1.838a9.572,9.572,0,0,1-6.594,13.929c-3.011.591-7.794-.478-8.61-5.553ZM12.006,77.509H8.273a1.525,1.525,0,0,1-1.519-1.52V72.275a1.525,1.525,0,0,1,1.519-1.519h3.733a1.525,1.525,0,0,1,1.519,1.519v3.714A1.525,1.525,0,0,1,12.006,77.509ZM.947,73.757A.945.945,0,0,1,0,72.81V70.2a.945.945,0,0,1,.947-.947h2.6a.951.951,0,0,1,.947.947V72.81a.945.945,0,0,1-.947.947Zm14.81-2.373V69.377a.877.877,0,0,1,.872-.872h2.007a.877.877,0,0,1,.872.872v2.007a.877.877,0,0,1-.872.872H16.63A.877.877,0,0,1,15.758,71.384Zm-10.505,8.7v2.345a1.077,1.077,0,0,1-1.069,1.079H1.82A1.077,1.077,0,0,1,.75,82.433V80.088A1.077,1.077,0,0,1,1.82,79.01H4.174A1.079,1.079,0,0,1,5.253,80.088Z" transform="translate(0 -64.003)" fill="#4262ff"/>
</svg>
