<svg xmlns="http://www.w3.org/2000/svg" width="13.959" height="8.378" viewBox="0 0 13.959 8.378">
  <path id="handshake-solid" d="M9.481,64H7.607a.7.7,0,0,0-.471.183L4.992,66.146l-.007.009a.868.868,0,0,0-.046,1.221.91.91,0,0,0,1.224.059s.007,0,.009,0l1.743-1.6a.349.349,0,1,1,.471.515l-.569.521,3.176,2.578a1.571,1.571,0,0,1,.172.168V65.4L9.974,64.205A.693.693,0,0,0,9.481,64Zm2.384,1.4v4.883a.7.7,0,0,0,.7.7h1.4V65.4Zm1.047,4.883a.349.349,0,1,1,.349-.349A.35.35,0,0,1,12.912,70.284ZM0,70.979H1.4a.7.7,0,0,0,.7-.7V65.4H0Zm1.047-1.394a.349.349,0,1,1-.349.349A.35.35,0,0,1,1.047,69.586Zm9.507.406L7.3,67.348l-.654.6a1.57,1.57,0,0,1-2.122-2.314L6.305,64H4.478a.7.7,0,0,0-.493.205L2.792,65.4v4.883h.4l1.974,1.786a1.4,1.4,0,0,0,1.963-.2l0,0,.39.338a.811.811,0,0,0,1.141-.118l.685-.842.118.1a.7.7,0,0,0,.981-.1l.207-.255a.7.7,0,0,0-.1-.984Z" transform="translate(0 -64)" fill="#e4e4e4"/>
</svg>
