<svg xmlns="http://www.w3.org/2000/svg" width="14.078" height="14.11" viewBox="0 0 14.078 14.11">
  <g id="workflow" transform="translate(-0.369)">
    <path id="Path_13147" data-name="Path 13147" d="M10.924,5.1H15.6a.214.214,0,0,0,.214-.214V.214A.214.214,0,0,0,15.6,0H10.924a.214.214,0,0,0-.214.214V4.888A.214.214,0,0,0,10.924,5.1Z" transform="translate(-9.899)" fill="#fff"/>
    <path id="Path_13148" data-name="Path 13148" d="M3.513,190.055a.214.214,0,0,0-.3,0L.432,192.834a.214.214,0,0,0,0,.3l2.779,2.779a.214.214,0,0,0,.3,0l2.779-2.779a.214.214,0,0,0,0-.3Z" transform="translate(0 -181.868)" fill="#fff"/>
    <path id="Path_13149" data-name="Path 13149" d="M195.288,5.234h2.692a.214.214,0,0,0,.185-.107L199.51,2.8a.214.214,0,0,0,0-.214L198.165.252a.214.214,0,0,0-.185-.107h-2.692a.214.214,0,0,0-.185.107l-1.346,2.331a.214.214,0,0,0,0,.214L195.1,5.128A.214.214,0,0,0,195.288,5.234Z" transform="translate(-185.091 -0.139)" fill="#fff"/>
    <path id="Path_13150" data-name="Path 13150" d="M205.216,196.432a2.718,2.718,0,1,0,2.718,2.718A2.721,2.721,0,0,0,205.216,196.432Z" transform="translate(-193.486 -188.033)" fill="#fff"/>
    <path id="Path_13151" data-name="Path 13151" d="M62.019,126.5a.15.15,0,0,0-.15.15v1.967a.15.15,0,0,0,.15.15h.342a.15.15,0,0,0,.15-.15v-1.967a.15.15,0,0,0-.15-.15Z" transform="translate(-58.87 -121.087)" fill="#fff"/>
    <path id="Path_13152" data-name="Path 13152" d="M257.711,128.164a.15.15,0,0,0-.15.15v1.967a.15.15,0,0,0,.15.15h.342a.15.15,0,0,0,.15-.15v-1.967a.15.15,0,0,0-.15-.15Z" transform="translate(-246.195 -122.684)" fill="#fff"/>
    <path id="Path_13153" data-name="Path 13153" d="M144.471,53.336h-1.493a.15.15,0,0,0-.15.15v.342a.15.15,0,0,0,.15.15h1.493a.15.15,0,0,0,.15-.15v-.342A.15.15,0,0,0,144.471,53.336Z" transform="translate(-136.367 -51.055)" fill="#fff"/>
  </g>
</svg>
