<svg xmlns="http://www.w3.org/2000/svg" width="15.373" height="12.298" viewBox="0 0 15.373 12.298">
  <path id="network-wired-solid" d="M15.373,6.341V5.957a.384.384,0,0,0-.384-.384H8.263V4.612H9.992a.769.769,0,0,0,.769-.769V.769A.769.769,0,0,0,9.992,0H5.38a.769.769,0,0,0-.769.769V3.843a.769.769,0,0,0,.769.769H7.11v.961H.384A.384.384,0,0,0,0,5.957v.384a.384.384,0,0,0,.384.384h2.5v.961H1.537a.769.769,0,0,0-.769.769V11.53a.769.769,0,0,0,.769.769H5.38a.769.769,0,0,0,.769-.769V8.455a.769.769,0,0,0-.769-.769H4.035V6.726h7.3v.961H9.992a.769.769,0,0,0-.769.769V11.53a.769.769,0,0,0,.769.769h3.843a.769.769,0,0,0,.769-.769V8.455a.769.769,0,0,0-.769-.769H12.49V6.726h2.5A.384.384,0,0,0,15.373,6.341ZM6.149,3.075a.8.8,0,0,1,0-1.537,4.244,4.244,0,0,1,3.075,0c.769.384,0,1.537,0,1.537S6.918,3.459,6.149,3.075ZM4.612,10.761H2.306V9.224H4.612Zm8.455,0H10.761V9.224h2.306Z" fill="#fff"/>
</svg>
