<svg xmlns="http://www.w3.org/2000/svg" width="13.788" height="14.159" viewBox="0 0 13.788 14.159">
  <g id="_08-wand" data-name="08-wand" transform="translate(-2.346 -0.152)">
    <g id="Glyph" transform="translate(2.346 0.152)">
      <path id="Path_13043" data-name="Path 13043" d="M16.016,9.06,15.007,7.708l.542-1.6a.6.6,0,0,0-.758-.758l-1.6.542L11.842,4.886a.6.6,0,0,0-.955.487l.022,1.686-1.377.974A.6.6,0,0,0,9.7,9.092l.985.306L2.346,17.736l.845.845,8.325-8.325.294.946a.6.6,0,0,0,.477.413.591.591,0,0,0,.094.007.6.6,0,0,0,.488-.253l.974-1.377,1.686.022h.007a.6.6,0,0,0,.479-.955Z" transform="translate(-2.346 -4.423)" fill="#e4e4e4"/>
      <path id="Path_13044" data-name="Path 13044" d="M130.777,113.372a1.064,1.064,0,0,1-1.056-1.07.149.149,0,1,0-.3,0,1.064,1.064,0,0,1-1.056,1.07.149.149,0,1,0,0,.3,1.064,1.064,0,0,1,1.056,1.07.149.149,0,0,0,.3,0,1.064,1.064,0,0,1,1.056-1.07.149.149,0,0,0,0-.3Z" transform="translate(-118.812 -103.784)" fill="#e4e4e4"/>
      <path id="Path_13045" data-name="Path 13045" d="M62.366,1.671a1.064,1.064,0,0,1,1.056,1.07.149.149,0,0,0,.3,0,1.064,1.064,0,0,1,1.056-1.07.149.149,0,1,0,0-.3A1.064,1.064,0,0,1,63.721.3a.149.149,0,0,0-.3,0,1.064,1.064,0,0,1-1.056,1.07.149.149,0,1,0,0,.3Z" transform="translate(-57.744 -0.152)" fill="#e4e4e4"/>
      <path id="Path_13046" data-name="Path 13046" d="M12.366,68.667a1.064,1.064,0,0,1,1.056,1.07.149.149,0,0,0,.3,0,1.064,1.064,0,0,1,1.056-1.07.149.149,0,0,0,0-.3,1.064,1.064,0,0,1-1.056-1.07.149.149,0,0,0-.3,0,1.064,1.064,0,0,1-1.056,1.071.149.149,0,1,0,0,.3Z" transform="translate(-11.479 -62.142)" fill="#e4e4e4"/>
    </g>
  </g>
</svg>
