<svg xmlns="http://www.w3.org/2000/svg" width="13.141" height="11.29" viewBox="0 0 13.141 11.29">
  <g id="portrait" transform="translate(0 -3.496)">
    <path id="Path_32281" data-name="Path 32281" d="M13.141,9.67a5.059,5.059,0,0,1-1.492,3.656,8.231,8.231,0,0,0,.821-4.161,5.923,5.923,0,0,0-1.011-3.318A5.01,5.01,0,0,1,13.141,9.67ZM1.682,5.847A5.011,5.011,0,0,0,0,9.67a5.043,5.043,0,0,0,1.556,3.715A7.9,7.9,0,0,1,.67,9.165,5.922,5.922,0,0,1,1.682,5.847Zm9.045-.5a5.594,5.594,0,0,0-8.313,0A5.659,5.659,0,0,0,.934,9.164c0,2.689.572,4.1,1.507,4.844a2.953,2.953,0,0,0,.544.344q-.112-.091-.215-.193A3.06,3.06,0,0,1,1.844,12c-.035-.87-.052-1.454-.071-2.13-.01-.356-.021-.737-.036-1.2,0-1.76,1.832-3.074,3.47-3.074H7.933A3.416,3.416,0,0,1,11.4,8.672c-.015.458-.025.838-.035,1.194-.019.676-.036,1.26-.071,2.123a3.072,3.072,0,0,1-.927,2.172c-.074.073-.153.142-.234.207a2.957,2.957,0,0,0,.6-.376c.916-.748,1.474-2.159,1.474-4.826A5.66,5.66,0,0,0,10.726,5.346ZM9.681,14.365a2.826,2.826,0,0,1-1.484.421H4.944a2.84,2.84,0,0,1-2.835-2.8c-.054-1.331-.064-2-.106-3.323a3.175,3.175,0,0,1,3.205-2.81H7.933a3.175,3.175,0,0,1,3.205,2.81c-.042,1.322-.053,1.991-.106,3.323A2.815,2.815,0,0,1,9.681,14.365ZM5.367,9.948a1.069,1.069,0,1,0-.422.841A1.055,1.055,0,0,0,5.367,9.948Zm4.524,0a1.054,1.054,0,1,0-1.059,1.059A1.059,1.059,0,0,0,9.891,9.948Z" transform="translate(0 0)" fill="#e4e4e4"/>
  </g>
</svg>
