<svg xmlns="http://www.w3.org/2000/svg" width="14.938" height="13.279" viewBox="0 0 14.938 13.279">
  <path id="brain-solid" d="M5.394,0a1.655,1.655,0,0,0-1.6,1.25c-.021,0-.036-.005-.057-.005A1.661,1.661,0,0,0,2.075,2.9a1.529,1.529,0,0,0,.044.363A2.057,2.057,0,0,0,1.045,6.092,2.067,2.067,0,0,0,1.281,9.8a1.9,1.9,0,0,0-.036.366,1.866,1.866,0,0,0,1.867,1.867A1.758,1.758,0,0,0,3.423,12a1.863,1.863,0,0,0,3.631-.591V1.66A1.661,1.661,0,0,0,5.394,0Zm9.544,7.884a2.064,2.064,0,0,0-1.045-1.792,2.041,2.041,0,0,0,.215-.905A2.075,2.075,0,0,0,12.82,3.268,1.644,1.644,0,0,0,11.2,1.245c-.021,0-.039.005-.057.005a1.657,1.657,0,0,0-3.263.41v9.751A1.863,1.863,0,0,0,11.515,12a1.758,1.758,0,0,0,.311.031,1.866,1.866,0,0,0,1.867-1.867,1.9,1.9,0,0,0-.036-.366A2.075,2.075,0,0,0,14.938,7.884Z" fill="#e4e4e4"/>
</svg>
