<svg xmlns="http://www.w3.org/2000/svg" width="14.077" height="13.836" viewBox="0 0 14.077 13.836">
  <path id="cube-solid_1_" data-name="cube-solid (1)" d="M6.575,3.322.855,5.467A1.322,1.322,0,0,0,0,6.7v6.19a1.319,1.319,0,0,0,.729,1.18l5.72,2.86a1.311,1.311,0,0,0,1.18,0l5.72-2.86a1.317,1.317,0,0,0,.729-1.18V6.7a1.318,1.318,0,0,0-.855-1.235L7.5,3.324A1.3,1.3,0,0,0,6.575,3.322ZM7.04,5.029l5.28,1.98v.03L7.04,9.184,1.76,7.039v-.03Zm.88,9.79V10.724l4.4-1.787v3.682Z" transform="translate(0 -3.237)" fill="#fff"/>
</svg>
