<svg xmlns="http://www.w3.org/2000/svg" width="15.29" height="15.29" viewBox="0 0 15.29 15.29">
  <path id="Path_13154" data-name="Path 13154" d="M9.645,3.433a1.433,1.433,0,0,1,2.867,0v.478a.956.956,0,0,0,.956.956h2.867a.956.956,0,0,1,.956.956V8.689a.956.956,0,0,1-.956.956h-.478a1.433,1.433,0,1,0,0,2.867h.478a.956.956,0,0,1,.956.956v2.867a.956.956,0,0,1-.956.956H13.467a.956.956,0,0,1-.956-.956v-.478a1.433,1.433,0,0,0-2.867,0v.478a.956.956,0,0,1-.956.956H5.822a.956.956,0,0,1-.956-.956V13.467a.956.956,0,0,0-.956-.956H3.433a1.433,1.433,0,0,1,0-2.867h.478a.956.956,0,0,0,.956-.956V5.822a.956.956,0,0,1,.956-.956H8.689a.956.956,0,0,0,.956-.956Z" transform="translate(-2 -2)" fill="#fff"/>
</svg>
