<svg xmlns="http://www.w3.org/2000/svg" width="16.045" height="14.911" viewBox="0 0 16.045 14.911">
  <g id="box" transform="translate(0 -13.155)">
    <path id="Path_32298" data-name="Path 32298" d="M15.887,206.039a1.227,1.227,0,0,0-1.672-.467l-3.577,2.015a.194.194,0,0,0-.093.123,1.471,1.471,0,0,1-.554.858,1.784,1.784,0,0,1-1.528.17l-.011,0-2.064-.641a.237.237,0,1,1,.141-.453l2.053.637.01,0a1.335,1.335,0,0,0,1.123-.1,1.072,1.072,0,0,0,.394-.712v-.009h0a1.086,1.086,0,0,0-.786-1.124l-.009,0c-.015,0-1.534-.5-2.5-.777a3.122,3.122,0,0,0-.832-.1,3.756,3.756,0,0,0-2.35.82L.072,209.152a.194.194,0,0,0-.033.268l1.927,2.545a.194.194,0,0,0,.129.075l.026,0a.194.194,0,0,0,.118-.04L4.72,210.09a.24.24,0,0,1,.2-.043l4.008.947a1.238,1.238,0,0,0,.884-.125l5.608-3.159A1.229,1.229,0,0,0,15.887,206.039Z" transform="translate(0 -183.975)" fill="#fff"/>
    <path id="Path_32299" data-name="Path 32299" d="M144.737,13.155h-7.325a.431.431,0,0,0-.431.431v1.961a.431.431,0,0,0,.431.431h.161v4.163a.431.431,0,0,0,.431.431h6.141a.431.431,0,0,0,.431-.431V15.977h.161a.431.431,0,0,0,.431-.431V13.586A.431.431,0,0,0,144.737,13.155ZM141.981,17h-1.813a.345.345,0,1,1,0-.689h1.813a.345.345,0,1,1,0,.689Zm2.325-1.885h-6.463v-1.1h6.463Z" transform="translate(-131.079 0)" fill="#fff"/>
  </g>
</svg>
