<svg xmlns="http://www.w3.org/2000/svg" width="15.077" height="13.252" viewBox="0 0 15.077 13.252">
  <g id="it-department" transform="translate(0)">
    <path id="Path_32289" data-name="Path 32289" d="M.442,35.407H2.65v.883H2.209a.442.442,0,0,0,0,.883H3.976a.442.442,0,0,0,0-.883H3.534v-.883H5.742a.441.441,0,0,0,.442-.442V31.432a.441.441,0,0,0-.442-.442H.442A.441.441,0,0,0,0,31.432v3.534A.441.441,0,0,0,.442,35.407Z" transform="translate(0 -30.99)" fill="#fff"/>
    <path id="Path_32290" data-name="Path 32290" d="M.442,305.407H6.626a.442.442,0,0,0,0-.884H6.184v-3.092a.441.441,0,0,0-.442-.442H1.325a.441.441,0,0,0-.442.442v3.092H.442a.442.442,0,0,0,0,.884Z" transform="translate(0 -293.039)" fill="#fff"/>
    <path id="Path_32291" data-name="Path 32291" d="M241.421,332.757h.7l-.13.13a.442.442,0,0,0,.625.625l.883-.883a.443.443,0,0,0,0-.626l-.883-.883a.442.442,0,0,0-.625.625l.13.13h-.7a.442.442,0,1,0,0,.883Z" transform="translate(-233.882 -322.155)" fill="#fff"/>
    <path id="Path_32292" data-name="Path 32292" d="M241.421,92.757h.7l-.13.129a.442.442,0,0,0,.625.625l.883-.883a.443.443,0,0,0,0-.626l-.883-.883a.442.442,0,1,0-.625.625l.13.129h-.7a.442.442,0,1,0,0,.883Z" transform="translate(-233.882 -89.223)" fill="#fff"/>
    <ellipse id="Ellipse_92" data-name="Ellipse 92" cx="1.325" cy="1.325" rx="1.325" ry="1.325" transform="translate(11.544 0)" fill="#fff"/>
    <path id="Path_32293" data-name="Path 32293" d="M364.188,120.99a2.211,2.211,0,0,0-2.209,2.209v.883a.441.441,0,0,0,.442.442h3.534a.442.442,0,0,0,.442-.442V123.2A2.211,2.211,0,0,0,364.188,120.99Z" transform="translate(-351.319 -118.34)" fill="#fff"/>
    <ellipse id="Ellipse_93" data-name="Ellipse 93" cx="1.325" cy="1.325" rx="1.325" ry="1.325" transform="translate(11.544 7.068)" fill="#fff"/>
    <path id="Path_32294" data-name="Path 32294" d="M364.188,360.99a2.211,2.211,0,0,0-2.209,2.209v.883a.441.441,0,0,0,.442.442h3.534a.441.441,0,0,0,.442-.442V363.2A2.211,2.211,0,0,0,364.188,360.99Z" transform="translate(-351.319 -351.272)" fill="#fff"/>
  </g>
</svg>
