<svg xmlns="http://www.w3.org/2000/svg" width="17.777" height="14.828" viewBox="0 0 17.777 14.828">
  <g id="mortarboard" transform="translate(0 -42.468)">
    <path id="Path_32300" data-name="Path 32300" d="M17.43,45.45,9.062,42.5a.521.521,0,0,0-.347,0L.348,45.45a.521.521,0,0,0,0,.982l8.368,2.975a.52.52,0,0,0,.349,0l8.368-2.975a.521.521,0,0,0,0-.982Z" transform="translate(0 0)" fill="#fff"/>
    <path id="Path_32301" data-name="Path 32301" d="M432.415,202.277v-4.543l-1.042.37v4.173a1.046,1.046,0,0,0,0,1.814v2.56a.521.521,0,1,0,1.042,0v-2.56a1.046,1.046,0,0,0,0-1.814Z" transform="translate(-415.888 -149.875)" fill="#fff"/>
    <path id="Path_32302" data-name="Path 32302" d="M110.672,224.175a1.558,1.558,0,0,1-.523-.09l-4.7-1.672V224.7c0,.561.585,1.035,1.739,1.409a12.278,12.278,0,0,0,6.978,0c1.154-.374,1.739-.849,1.739-1.409v-2.292l-4.7,1.672A1.559,1.559,0,0,1,110.672,224.175Z" transform="translate(-101.783 -173.696)" fill="#fff"/>
  </g>
</svg>
