<svg xmlns="http://www.w3.org/2000/svg" width="17.151" height="17.615" viewBox="0 0 17.151 17.615">
  <g id="ubuntu" transform="translate(-6.489)">
    <g id="Group_11346" data-name="Group 11346" transform="translate(9.715 2.828)">
      <g id="Group_11345" data-name="Group 11345" transform="translate(0)">
        <path id="Path_32283" data-name="Path 32283" d="M99.431,85a4.255,4.255,0,0,1,1.631-3.352l-1.518-2.43A7.126,7.126,0,0,0,96.861,83a2.562,2.562,0,0,1,.077,4.258,7.124,7.124,0,0,0,2.667,3.574l1.412-2.512A4.246,4.246,0,0,1,99.431,85Z" transform="translate(-96.861 -79.22)" fill="#fff"/>
      </g>
    </g>
    <g id="Group_11347" data-name="Group 11347" transform="translate(6.489 6.918)">
      <path id="Path_32284" data-name="Path 32284" d="M10.174,195.632a1.842,1.842,0,1,1-1.842-1.841A1.843,1.843,0,0,1,10.174,195.632Z" transform="translate(-6.489 -193.791)" fill="#fff"/>
    </g>
    <g id="Group_11349" data-name="Group 11349" transform="translate(13.403 9.049)">
      <g id="Group_11348" data-name="Group 11348">
        <path id="Path_32285" data-name="Path 32285" d="M207.284,257.66a2.543,2.543,0,0,1,1.186.291,7.09,7.09,0,0,0,1.935-4.4l-2.861-.055a4.262,4.262,0,0,1-5.954,3.457l-1.422,2.488a7.134,7.134,0,0,0,4.562.586A2.561,2.561,0,0,1,207.284,257.66Z" transform="translate(-200.168 -253.496)" fill="#fff"/>
      </g>
    </g>
    <g id="Group_11350" data-name="Group 11350" transform="translate(18.677 13.932)">
      <path id="Path_32286" data-name="Path 32286" d="M351.583,392.1a1.842,1.842,0,1,1-1.841-1.842A1.841,1.841,0,0,1,351.583,392.1Z" transform="translate(-347.9 -390.255)" fill="#fff"/>
    </g>
    <g id="Group_11352" data-name="Group 11352" transform="translate(13.376 1.497)">
      <g id="Group_11351" data-name="Group 11351">
        <path id="Path_32287" data-name="Path 32287" d="M207.945,44.364a2.56,2.56,0,0,1-4.039-2.09c0-.075,0-.148.009-.221a7.133,7.133,0,0,0-4.495.617l1.414,2.49a4.26,4.26,0,0,1,5.982,3.387l2.861-.087A7.082,7.082,0,0,0,207.945,44.364Z" transform="translate(-199.421 -41.928)" fill="#fff"/>
      </g>
    </g>
    <g id="Group_11353" data-name="Group 11353" transform="translate(18.581)">
      <path id="Path_32288" data-name="Path 32288" d="M348.9,1.842A1.841,1.841,0,1,1,347.063,0,1.84,1.84,0,0,1,348.9,1.842Z" transform="translate(-345.221)" fill="#fff"/>
    </g>
  </g>
</svg>
