<svg xmlns="http://www.w3.org/2000/svg" width="14.274" height="14.265" viewBox="0 0 14.274 14.265">
  <path id="searchengin-brands" d="M6.845,35.341l-2.085.875V32.638l-1.7,5.905,1.7-.751v4.043Zm-2.582-3-.04.146-.472,1.642A3.336,3.336,0,0,0,1.614,37.24,3.256,3.256,0,0,0,4.2,40.514v1.663a4.974,4.974,0,0,1,.062-9.837Zm9.663,13.877a.949.949,0,0,1-.887.326c-.168-.056-.841-.618-1.874-1.378a3.107,3.107,0,0,1-1.334-1.759A3.219,3.219,0,0,0,8.046,41.78l-.3-.456a5.07,5.07,0,0,1-2.523.891l.065-.2.493-1.536a3.339,3.339,0,0,0,2.51-3.233,3.26,3.26,0,0,0-2.979-3.323V32.3A4.921,4.921,0,0,1,9.03,40.048l.453.3a3.212,3.212,0,0,0,1.626,1.781,3.121,3.121,0,0,1,1.763,1.334c.763,1.03,1.325,1.7,1.381,1.871A.946.946,0,0,1,13.927,46.217Zm-.307-.555a.248.248,0,1,0-.248.248A.249.249,0,0,0,13.62,45.662Z" transform="translate(0 -32.3)" fill="#fff"/>
</svg>
