<svg xmlns="http://www.w3.org/2000/svg" width="13.376" height="16.702" viewBox="0 0 13.376 16.702">
  <g id="hot-sale" transform="translate(-50.94)">
    <path id="Path_32295" data-name="Path 32295" d="M297.873,338.724c-.141,0-.283.129-.283.559s.141.559.283.559.283-.129.283-.559S298.014,338.724,297.873,338.724Z" transform="translate(-238.596 -327.664)" fill="#fff"/>
    <path id="Path_32296" data-name="Path 32296" d="M196.926,273.787c-.141,0-.283.129-.283.559s.141.559.283.559.283-.129.283-.559S197.067,273.787,196.926,273.787Z" transform="translate(-140.945 -264.848)" fill="#fff"/>
    <path id="Path_32297" data-name="Path 32297" d="M62.519,5.925A18.455,18.455,0,0,1,59.8,2.1,8.8,8.8,0,0,1,59.147.557L59,0l-.526.235a5.254,5.254,0,0,0-2.328,2.318A5.3,5.3,0,0,0,55.658,4.9a.755.755,0,0,1-1.29.538l-.979-.979-.337.465c-.035.048-.858,1.184-1.008,1.411a6.688,6.688,0,1,0,12.272,3.682A6.357,6.357,0,0,0,62.519,5.925Zm-3.243,6.946a1.149,1.149,0,0,1-1.2-1.253,1.2,1.2,0,1,1,2.39,0A1.149,1.149,0,0,1,59.276,12.871ZM58.621,8.31h1.086l-3.071,4.5H55.55ZM54.785,9.5a1.2,1.2,0,1,1,2.39,0,1.2,1.2,0,1,1-2.39,0Z" fill="#fff"/>
  </g>
</svg>
