<svg xmlns="http://www.w3.org/2000/svg" width="12.95" height="15.518" viewBox="0 0 12.95 15.518">
  <g id="game-planning" transform="translate(-76.25)">
    <g id="Group_11354" data-name="Group 11354" transform="translate(76.25)">
      <circle id="Ellipse_94" data-name="Ellipse 94" cx="1.903" cy="1.903" r="1.903" transform="translate(0 11.713)" fill="#fff"/>
      <circle id="Ellipse_95" data-name="Ellipse 95" cx="1.903" cy="1.903" r="1.903" transform="translate(5.493 11.713)" fill="#fff"/>
      <circle id="Ellipse_96" data-name="Ellipse 96" cx="1.903" cy="1.903" r="1.903" transform="translate(5.493)" fill="#fff"/>
      <path id="Path_32303" data-name="Path 32303" d="M79.412,350.239l-.722.722a.221.221,0,0,0,0,.312l.764.764-.764.764a.221.221,0,0,0,0,.312l.722.722a.221.221,0,0,0,.312,0l.764-.764.764.764a.221.221,0,0,0,.312,0l.722-.722a.221.221,0,0,0,0-.312l-.764-.764.764-.764a.221.221,0,0,0,0-.312l-.722-.722a.221.221,0,0,0-.312,0l-.764.764-.764-.764A.221.221,0,0,0,79.412,350.239Z" transform="translate(-78.585 -344.279)" fill="#fff"/>
      <path id="Path_32304" data-name="Path 32304" d="M408.487,350.962l-.722-.722a.221.221,0,0,0-.311,0l-.764.764-.764-.764a.221.221,0,0,0-.311,0l-.722.722a.221.221,0,0,0,0,.312l.764.764-.764.764a.221.221,0,0,0,0,.312l.722.722a.221.221,0,0,0,.311,0l.764-.764.764.764a.221.221,0,0,0,.312,0l.722-.722a.221.221,0,0,0,0-.312l-.764-.764.764-.764A.221.221,0,0,0,408.487,350.962Z" transform="translate(-399.293 -344.279)" fill="#fff"/>
      <path id="Path_32305" data-name="Path 32305" d="M661.2,159.079a.427.427,0,0,0-.067.591.422.422,0,0,0,.6.061,7.288,7.288,0,0,0,2.415-5.589,8.159,8.159,0,0,0-.313-2.251,7.369,7.369,0,0,0-.707-1.665l.49-.416a.119.119,0,0,0-.037-.2L661.6,148.9a.119.119,0,0,0-.157.133l.375,2.073a.119.119,0,0,0,.194.069l.5-.443a6.972,6.972,0,0,1,.519,1.4,7.243,7.243,0,0,1,.281,2.017A6.447,6.447,0,0,1,661.2,159.079Z" transform="translate(-651.201 -146.383)" fill="#fff"/>
    </g>
  </g>
</svg>
