<svg xmlns="http://www.w3.org/2000/svg" width="18.309" height="12.816" viewBox="0 0 18.309 12.816">
  <path id="users-solid" d="M2.746,37.493A1.831,1.831,0,1,0,.915,35.662,1.833,1.833,0,0,0,2.746,37.493Zm12.816,0a1.831,1.831,0,1,0-1.831-1.831A1.833,1.833,0,0,0,15.563,37.493Zm.915.915H14.647a1.826,1.826,0,0,0-1.29.532,4.185,4.185,0,0,1,2.148,3.13h1.888a.914.914,0,0,0,.915-.915v-.915A1.833,1.833,0,0,0,16.478,38.408Zm-7.324,0a3.2,3.2,0,1,0-3.2-3.2A3.2,3.2,0,0,0,9.155,38.408Zm2.2.915h-.237a4.424,4.424,0,0,1-3.919,0H6.958a3.3,3.3,0,0,0-3.3,3.3v.824a1.374,1.374,0,0,0,1.373,1.373h8.239a1.374,1.374,0,0,0,1.373-1.373v-.824A3.3,3.3,0,0,0,11.352,39.324Zm-6.4-.383a1.826,1.826,0,0,0-1.29-.532H1.831A1.833,1.833,0,0,0,0,40.239v.915a.914.914,0,0,0,.915.915H2.8a4.2,4.2,0,0,1,2.151-3.13Z" transform="translate(0 -32)" fill="#fff"/>
</svg>
