<svg xmlns="http://www.w3.org/2000/svg" width="16.065" height="14.56" viewBox="0 0 16.065 14.56">
  <path id="sketch-brands" d="M9.6,36.232l-.6.809h2.941l.224-4.248Zm11.986-3.786L17.408,32l4.41,4.784-.231-4.339Zm-9.233,5.61-.364-.715H9.029l7.309,8.505Zm.065-1.014h9.23L19,34.165l-1.963-2.132Zm9.662.3L17.73,45.845l7.306-8.505H22.081Zm.127-4.134-.306-.41.029.562.2,3.686h2.935ZM12.4,34l-.15,2.782L16.66,32l-4.18.445Zm9.35,3.338H12.322L13.7,40.031l3.338,6.529,4.709-9.224Z" transform="translate(-9 -32)" fill="#fff"/>
</svg>
