<svg xmlns="http://www.w3.org/2000/svg" width="15.125" height="13.235" viewBox="0 0 15.125 13.235">
  <path id="Path_12992" data-name="Path 12992" d="M2,10.563a.945.945,0,0,1,.945-.945H4.836a.945.945,0,0,1,.945.945v4.727a.945.945,0,0,1-.945.945H2.945A.945.945,0,0,1,2,15.289ZM7.672,6.781a.945.945,0,0,1,.945-.945h1.891a.945.945,0,0,1,.945.945v8.508a.945.945,0,0,1-.945.945H8.617a.945.945,0,0,1-.945-.945Zm5.672-2.836A.945.945,0,0,1,14.289,3H16.18a.945.945,0,0,1,.945.945V15.289a.945.945,0,0,1-.945.945H14.289a.945.945,0,0,1-.945-.945Z" transform="translate(-2 -3)" fill="#fff"/>
</svg>
