<svg xmlns="http://www.w3.org/2000/svg" width="14.986" height="14.986" viewBox="0 0 14.986 14.986">
  <path id="pencil-alt-solid" d="M14.6,4.232,13.247,5.581a.352.352,0,0,1-.5,0L9.5,2.332a.352.352,0,0,1,0-.5L10.85.486a1.408,1.408,0,0,1,1.987,0L14.6,2.245A1.4,1.4,0,0,1,14.6,4.232ZM8.342,2.994.655,10.68.035,14.237a.7.7,0,0,0,.814.814L4.4,14.427l7.686-7.686a.352.352,0,0,0,0-.5L8.842,2.994a.355.355,0,0,0-.5,0ZM3.655,10.022a.408.408,0,0,1,0-.58L8.163,4.935a.41.41,0,1,1,.58.58L4.235,10.022a.408.408,0,0,1-.58,0ZM2.6,12.483H4v1.062l-1.888.331-.91-.91.331-1.888H2.6Z" transform="translate(-0.024 -0.075)" fill="#fff"/>
</svg>
