<svg xmlns="http://www.w3.org/2000/svg" width="12.301" height="16.401" viewBox="0 0 12.301 16.401">
  <path id="code-branch-solid" d="M12.3,4.613a2.563,2.563,0,1,0-3.283,2.46,1.971,1.971,0,0,1-.352,1.182c-.493.615-1.579.718-2.729.823a7.732,7.732,0,0,0-2.6.541V5.007a2.563,2.563,0,1,0-1.538,0v6.384a2.568,2.568,0,1,0,1.691.058,1.127,1.127,0,0,1,.477-.429,6.445,6.445,0,0,1,2.117-.41c1.352-.125,2.883-.269,3.786-1.39a3.449,3.449,0,0,0,.692-2.175A2.573,2.573,0,0,0,12.3,4.613ZM2.563,2.05a.513.513,0,1,1-.513.513A.514.514,0,0,1,2.563,2.05Zm0,12.3a.513.513,0,1,1,.513-.513A.514.514,0,0,1,2.563,14.351ZM9.738,4.1a.513.513,0,1,1-.513.513A.514.514,0,0,1,9.738,4.1Z" transform="translate(0 0)" fill="#fff"/>
</svg>
