<svg xmlns="http://www.w3.org/2000/svg" width="13.691" height="13.691" viewBox="0 0 13.691 13.691">
  <path id="Path_12985" data-name="Path 12985" d="M4.567,2a.856.856,0,0,1,.856.856v.856h.856a.856.856,0,0,1,0,1.711H5.423v.856a.856.856,0,1,1-1.711,0V5.423H2.856a.856.856,0,0,1,0-1.711h.856V2.856A.856.856,0,0,1,4.567,2Zm0,8.557a.856.856,0,0,1,.856.856v.856h.856a.856.856,0,1,1,0,1.711H5.423v.856a.856.856,0,1,1-1.711,0V13.98H2.856a.856.856,0,1,1,0-1.711h.856v-.856A.856.856,0,0,1,4.567,10.557ZM10.557,2a.856.856,0,0,1,.827.637L12.393,6.45,15.263,8.1a.856.856,0,0,1,0,1.482l-2.87,1.656-1.01,3.812a.856.856,0,0,1-1.654,0L8.721,11.242,5.851,9.587a.856.856,0,0,1,0-1.482l2.87-1.656L9.73,2.637A.856.856,0,0,1,10.557,2Z" transform="translate(-2 -2)" fill="#fff" fill-rule="evenodd"/>
</svg>
