<svg xmlns="http://www.w3.org/2000/svg" width="19.071" height="11.89" viewBox="0 0 19.071 11.89">
  <path id="cloudversify-brands" d="M4.6,71.433a4.039,4.039,0,0,0,4.52,3.446,4.34,4.34,0,0,0,5.771-.173,4.013,4.013,0,0,0,1.22-7.883c-1.022-2.728-4.068-3.143-5.774-2.632a4.253,4.253,0,0,0-3.075,3.4,4.316,4.316,0,0,0-1.393.746c.362,0,.471.276.471.6v.632a.6.6,0,0,1-.6.6H5.112a.538.538,0,0,1-.6-.517v-.2H3.059a.377.377,0,0,0-.334.368v1.251a.367.367,0,0,0,.362.365H4.6Zm7.041.248c-.331,1.434.672,2.242,1.712,2.687-3.319,1.047-5.313-1.573-4.189-3.431a2.911,2.911,0,0,0-.9,2.876,3.233,3.233,0,0,1-1.777-2.471,3.075,3.075,0,0,1,1.765-2.907A3.564,3.564,0,0,1,12.385,69.7a3.315,3.315,0,0,0-3.152-2.316,3.949,3.949,0,0,1,3.536-1.353c2.161.288,4.124,2.564,2.1,4.66a2.646,2.646,0,0,0,1.471-2.381l.325.607a3.16,3.16,0,0,1-2.177,4.6,2.3,2.3,0,0,1-2.842-1.833Zm-7.679-3.22H2.731a.5.5,0,0,1-.5-.5V66.733a.5.5,0,0,1,.5-.5H3.963a.5.5,0,0,1,.5.5v1.226A.5.5,0,0,1,3.963,68.461ZM.313,67.223A.312.312,0,0,1,0,66.91v-.861a.312.312,0,0,1,.313-.313H1.17a.314.314,0,0,1,.313.313v.861a.312.312,0,0,1-.313.313ZM5.2,66.439v-.663a.289.289,0,0,1,.288-.288h.663a.289.289,0,0,1,.288.288v.663a.289.289,0,0,1-.288.288H5.49A.289.289,0,0,1,5.2,66.439ZM1.734,69.312v.774a.355.355,0,0,1-.353.356H.6a.355.355,0,0,1-.353-.356v-.774A.355.355,0,0,1,.6,68.956h.777A.356.356,0,0,1,1.734,69.312Z" transform="translate(0 -64.003)" fill="#fff"/>
</svg>
